{"glyphs":{"0":{"ha":735,"x_min":58,"x_max":671,"o":"m 592 428 q 533 592 592 521 q 379 663 475 663 q 203 556 283 663 q 122 331 122 449 q 182 144 122 213 q 329 74 242 76 q 482 133 419 75 q 592 428 592 238 m 440 722 q 614 651 557 722 q 671 469 671 581 q 548 142 671 281 q 261 3 425 3 q 108 74 158 3 q 58 257 58 146 q 170 584 58 446 q 440 722 282 722 z "},"1":{"ha":442,"x_min":89,"x_max":325,"o":"m 304 721 q 325 677 325 721 q 313 558 325 633 q 273 316 301 483 q 232 63 244 149 l 164 -22 q 154 8 154 -15 q 193 342 154 124 q 240 629 232 561 q 100 533 208 613 l 89 550 q 191 640 124 588 q 304 721 258 693 z "},"2":{"ha":611,"x_min":-19,"x_max":592,"o":"m 336 713 q 446 678 401 713 q 490 569 490 643 q 392 328 490 453 q 151 96 293 204 l 154 88 l 396 88 q 581 142 504 88 l 592 121 q 440 -1 501 44 l -10 0 l -19 21 q 103 110 25 44 q 335 341 257 242 q 414 519 414 440 q 290 640 414 640 q 92 585 197 640 l 76 607 q 336 713 217 713 z "},"3":{"ha":588,"x_min":-83,"x_max":472,"o":"m 58 611 q 305 714 232 714 q 423 671 378 714 q 468 543 468 628 q 421 420 468 485 q 306 310 374 356 l 307 306 q 326 307 314 307 q 433 260 393 307 q 472 156 472 213 q 417 -19 472 56 q 290 -127 363 -94 q 147 -160 218 -160 q -83 -104 7 -160 l -33 -17 q 192 -83 97 -83 q 325 -61 286 -83 q 388 81 388 4 q 342 206 388 158 q 213 258 297 254 l 199 282 l 247 314 q 314 361 289 342 q 364 417 339 381 q 389 503 389 453 q 352 601 389 554 q 249 647 315 647 q 74 585 183 647 l 58 611 z "},"4":{"ha":640,"x_min":-56,"x_max":624,"o":"m 165 86 l 239 85 q 321 86 286 85 q 407 613 399 546 l 404 617 q 249 337 356 496 q 53 86 142 178 l 57 82 q 165 86 100 86 m 293 -239 q 282 -208 282 -231 q 311 24 282 -185 l 32 24 q -46 17 -1 24 l -56 36 q 159 295 8 85 q 367 633 310 506 q 468 721 410 686 q 492 678 492 721 q 403 89 492 524 q 617 107 524 89 l 624 86 q 392 26 540 38 q 360 -156 375 -75 l 293 -239 z "},"5":{"ha":643,"x_min":-17,"x_max":590,"o":"m 265 714 q 440 715 265 714 q 590 713 482 715 q 507 628 551 676 q 344 624 407 624 q 242 631 281 624 l 233 625 q 164 251 186 438 l 168 244 q 340 297 256 297 q 476 242 424 297 q 528 90 528 186 q 473 -82 528 -7 q 346 -189 418 -157 q 210 -221 274 -221 q 85 -206 147 -221 q -17 -165 24 -190 l 42 -81 q 286 -146 178 -146 q 401 -106 356 -146 q 446 31 446 -65 q 256 213 446 213 q 115 189 197 213 l 104 206 q 174 639 131 483 q 217 682 189 658 q 265 714 246 706 z "},"6":{"ha":699,"x_min":65,"x_max":710,"o":"m 633 892 q 710 879 678 892 l 629 785 q 565 790 600 790 q 256 659 365 790 q 147 321 147 528 q 207 134 147 201 q 364 67 267 67 q 479 128 438 67 q 521 268 521 190 q 354 443 521 443 q 217 397 294 443 l 207 421 q 312 492 250 461 q 425 522 374 522 q 549 469 507 522 q 592 331 592 415 q 501 103 592 219 q 299 -12 410 -12 q 126 68 188 -12 q 65 261 65 149 q 108 482 65 374 q 222 682 150 590 q 403 833 294 774 q 633 892 513 892 z "},"7":{"ha":586,"x_min":29,"x_max":551,"o":"m 82 706 q 359 693 254 693 q 540 699 464 693 l 551 685 q 356 238 446 483 q 236 -151 265 -8 l 125 -212 l 113 -199 q 458 592 258 303 l 450 610 q 291 599 408 608 q 115 590 174 590 q 29 593 56 590 l 82 706 z "},"8":{"ha":668,"x_min":51,"x_max":574,"o":"m 160 704 q 248 844 160 782 q 428 906 336 906 q 524 874 488 906 q 560 776 560 842 q 532 693 560 739 q 478 621 504 647 q 396 538 453 594 q 530 407 486 467 q 574 255 574 347 q 481 80 574 163 q 285 -3 389 -3 q 116 56 181 -3 q 51 201 51 115 q 110 357 51 288 q 281 507 169 426 q 188 613 215 572 q 160 704 160 654 m 324 56 q 364 56 324 56 q 453 104 404 56 q 501 224 501 153 q 459 345 501 294 q 317 475 417 396 q 190 356 233 413 q 146 226 146 300 q 194 103 146 151 q 324 56 243 56 m 360 568 q 440 655 406 604 q 474 751 474 706 q 438 824 474 797 q 353 851 403 851 q 267 822 304 851 q 229 740 229 792 q 360 568 229 676 z "},"9":{"ha":688,"x_min":36,"x_max":601,"o":"m 388 731 q 546 653 490 731 q 601 438 601 576 q 517 114 601 264 q 407 -26 471 35 q 247 -125 343 -87 q 36 -162 151 -162 l 115 -61 q 304 -28 224 -61 q 431 64 385 6 q 519 360 519 179 q 464 578 519 504 q 319 651 408 651 q 181 590 229 651 q 132 445 132 528 q 180 318 132 363 q 300 274 228 274 q 450 318 372 274 l 460 294 q 360 222 419 250 q 249 193 300 193 q 108 250 154 193 q 61 397 61 307 q 158 629 61 528 q 388 731 256 731 z "}," ":{"ha":356,"x_min":0,"x_max":0,"o":""},"!":{"ha":497,"x_min":56,"x_max":436,"o":"m 319 1138 l 436 1210 q 383 853 403 971 q 318 569 364 735 q 200 239 272 404 l 165 253 q 319 1138 294 779 m 56 68 l 156 164 q 249 51 199 131 l 151 -37 q 115 6 150 -36 q 56 68 79 47 z "},"\"":{"ha":514,"x_min":129,"x_max":493,"o":"m 163 1222 l 257 1196 q 197 1019 236 1114 q 149 901 157 924 l 129 922 q 163 1222 140 1153 m 399 1222 l 493 1196 q 433 1019 472 1114 q 385 901 393 924 l 365 922 q 399 1222 376 1153 z "},"#":{"ha":875,"x_min":79,"x_max":847,"o":"m 674 888 l 638 628 l 847 628 l 772 553 l 628 553 l 592 296 l 824 296 l 749 221 l 582 221 l 549 -25 l 468 -100 l 511 221 l 347 221 l 314 -25 l 232 -100 l 275 221 l 79 221 l 154 296 l 286 296 l 321 553 l 79 553 l 154 628 l 332 628 l 357 813 l 439 888 l 403 628 l 568 628 l 593 813 l 674 888 m 393 553 l 357 296 l 522 296 l 557 553 l 393 553 z "},"$":{"ha":488,"x_min":-21,"x_max":446,"o":"m 350 700 q 446 683 446 700 q 342 604 411 635 q 274 646 336 646 q 195 631 236 646 q 138 597 154 617 q 195 478 138 558 q 310 310 253 399 q 367 167 367 221 q 326 74 367 113 q 221 13 285 35 l 193 -162 l 128 -207 l 157 -3 q 94 -6 124 -6 q 22 12 64 -6 q -21 46 -21 29 l 50 110 q 183 58 110 58 q 276 78 226 58 q 244 224 276 151 q 172 342 211 296 q 68 514 68 464 q 243 689 68 649 l 267 842 l 332 886 l 306 699 q 350 700 321 700 z "},"%":{"ha":1118,"x_min":54,"x_max":1025,"o":"m 944 292 q 917 394 944 346 q 828 443 889 443 q 726 377 768 443 q 683 226 683 311 q 786 72 683 72 q 944 292 944 72 m 640 318 q 653 350 640 318 q 725 433 667 382 q 864 483 783 483 q 985 428 944 483 q 1025 278 1025 372 q 940 99 1025 183 q 753 14 854 14 q 653 63 694 14 q 613 183 613 113 q 640 318 613 254 m 386 893 q 358 996 386 947 q 270 1044 331 1044 q 167 978 210 1044 q 125 828 125 913 q 228 674 125 674 q 386 893 386 674 m 81 919 q 95 951 81 919 q 167 1034 108 983 q 306 1085 225 1085 q 426 1029 386 1085 q 467 879 467 974 q 381 700 467 785 q 194 615 296 615 q 95 665 136 615 q 54 785 54 714 q 81 919 54 856 m 888 1136 l 956 1067 q 584 559 847 888 q 113 8 321 231 l 86 38 q 307 321 107 65 q 637 758 507 576 q 888 1136 767 940 z "},"&":{"ha":969,"x_min":53,"x_max":1064,"o":"m 53 358 q 53 427 53 358 q 99 624 53 497 q 213 840 144 750 q 361 987 282 931 q 498 1043 440 1043 q 587 1015 556 1043 q 618 935 618 988 q 383 690 618 833 q 754 708 583 708 q 940 704 761 708 l 856 624 q 665 626 819 626 q 643 525 661 603 q 604 268 604 357 q 717 72 604 94 q 877 220 785 119 q 1051 432 969 321 l 1064 424 q 838 142 953 268 q 646 -14 722 17 q 570 27 611 -14 q 515 153 529 68 q 319 -11 403 18 q 190 21 244 -11 q 108 108 136 53 q 53 358 53 218 m 511 218 q 586 625 511 438 q 189 585 374 625 q 171 576 182 582 q 151 415 151 494 q 203 171 151 249 q 351 76 254 93 q 511 188 413 90 l 511 218 m 185 626 q 289 681 278 669 l 290 681 q 514 890 510 804 q 495 943 514 924 q 440 963 476 963 q 303 863 379 963 q 185 626 228 764 z "},"'":{"ha":306,"x_min":165,"x_max":293,"o":"m 199 1222 l 293 1196 q 233 1019 272 1114 q 185 901 193 924 l 165 922 q 199 1222 176 1153 z "},"(":{"ha":575,"x_min":151,"x_max":540,"o":"m 244 350 q 418 -94 244 25 l 400 -115 q 200 132 264 -33 q 151 396 151 253 q 158 504 151 449 q 283 874 182 697 q 525 1133 385 1051 l 540 1114 q 356 851 439 1035 q 244 350 244 604 z "},")":{"ha":535,"x_min":42,"x_max":431,"o":"m 338 668 q 164 1113 338 993 l 182 1133 q 383 886 318 1051 q 431 622 431 765 q 424 514 431 569 q 299 144 400 321 q 57 -115 197 -33 l 42 -96 q 225 167 143 -17 q 338 668 338 414 z "},"*":{"ha":665,"x_min":121,"x_max":565,"o":"m 439 1068 l 388 894 l 397 885 q 560 996 518 971 l 565 897 l 406 842 l 400 822 l 528 732 l 458 683 l 371 779 l 357 774 l 329 632 l 251 610 l 308 776 l 300 786 l 136 710 l 121 735 l 285 822 l 292 847 q 144 961 246 879 l 228 1001 l 326 888 l 342 896 l 356 1033 l 439 1068 z "},"+":{"ha":863,"x_min":67,"x_max":810,"o":"m 472 481 l 810 481 l 735 406 l 472 406 l 472 142 l 397 67 l 397 406 l 67 406 l 142 481 l 397 481 l 397 735 l 472 810 l 472 481 z "},",":{"ha":378,"x_min":83,"x_max":260,"o":"m 83 92 q 167 185 156 182 q 224 124 196 161 q 260 69 251 86 q 221 -17 257 49 q 124 -160 185 -82 l 103 -144 q 176 -24 176 -46 q 130 30 168 -10 q 83 92 92 69 z "},"-":{"ha":556,"x_min":63,"x_max":519,"o":"m 113 481 q 519 525 304 481 l 476 450 q 75 407 285 407 q 63 407 69 407 l 101 481 q 113 481 107 481 z "},".":{"ha":375,"x_min":85,"x_max":278,"o":"m 185 186 q 278 74 228 153 l 181 -15 q 144 28 179 -14 q 85 90 108 69 l 185 186 z "},"/":{"ha":606,"x_min":78,"x_max":589,"o":"m 521 1164 l 589 1094 q 338 403 518 860 q 135 -115 157 -54 l 78 -40 q 206 278 106 32 q 521 1164 422 811 z "},":":{"ha":424,"x_min":83,"x_max":329,"o":"m 83 90 l 183 186 q 276 74 226 153 l 179 -15 q 142 28 178 -14 q 83 90 107 69 m 136 611 l 236 707 q 329 594 279 674 l 232 506 q 195 549 231 507 q 136 611 160 590 z "},";":{"ha":433,"x_min":83,"x_max":319,"o":"m 126 611 l 226 707 q 319 594 269 674 l 222 506 q 185 549 221 507 q 126 611 150 590 m 83 92 q 167 185 156 182 q 224 124 196 161 q 260 69 251 86 q 219 -17 257 49 q 119 -161 182 -82 l 103 -144 q 176 -24 176 -46 q 130 30 168 -10 q 83 92 92 69 z "},"<":{"ha":928,"x_min":140,"x_max":810,"o":"m 739 668 l 793 613 q 281 363 538 515 l 281 338 q 810 57 543 178 l 761 15 q 140 349 364 189 l 140 363 q 739 668 436 557 z "},"=":{"ha":878,"x_min":40,"x_max":835,"o":"m 115 243 l 783 243 l 708 168 l 40 168 l 115 243 m 167 504 l 835 504 l 760 429 l 92 429 l 167 504 z "},">":{"ha":871,"x_min":76,"x_max":746,"o":"m 147 668 q 746 363 450 557 l 746 349 q 125 15 522 189 l 76 57 q 606 338 343 178 l 606 363 q 93 613 349 515 l 147 668 z "},"?":{"ha":601,"x_min":97,"x_max":582,"o":"m 221 1031 q 408 1131 321 1131 q 581 979 581 1131 q 538 834 581 904 q 440 710 496 764 q 331 604 385 656 q 200 404 200 482 q 224 288 200 326 q 128 207 147 240 l 122 208 q 99 346 99 271 q 142 469 99 413 q 240 573 185 526 q 351 669 296 619 q 446 785 407 719 q 485 920 485 851 q 457 1030 485 989 q 382 1071 429 1071 q 225 1010 297 1071 l 221 1031 m 97 68 l 197 164 q 290 51 240 131 l 193 -37 q 156 6 192 -36 q 97 68 121 47 z "},"@":{"ha":1239,"x_min":104,"x_max":1125,"o":"m 567 622 q 498 493 519 582 q 476 318 476 404 q 588 372 533 319 q 678 495 643 424 q 724 635 714 567 q 567 622 619 635 m 736 969 q 1026 866 928 969 q 1125 611 1125 763 q 1078 406 1125 504 q 941 243 1032 308 q 735 178 850 178 q 667 183 699 178 q 687 309 669 211 q 704 463 704 407 q 411 183 561 244 q 394 325 394 218 l 394 332 q 483 585 394 472 q 590 667 529 643 q 808 686 650 686 q 836 664 836 686 q 780 453 822 597 q 719 238 738 308 q 967 350 885 263 q 1050 553 1050 438 q 953 826 1050 729 q 665 922 857 922 q 413 845 522 922 q 249 651 303 768 q 194 404 194 535 q 306 63 194 186 q 650 -60 417 -60 q 1033 119 839 -60 l 1046 103 q 617 -104 857 -104 q 385 -66 486 -104 q 224 38 283 -28 q 104 346 104 168 q 148 567 104 457 q 271 768 192 678 q 472 914 350 858 q 736 969 593 969 z "},"A":{"ha":935,"x_min":-132,"x_max":929,"o":"m 633 967 l 486 971 q 300 942 351 971 q 252 904 278 929 q 213 843 226 879 q 179 628 179 757 q 83 553 136 599 q 260 965 83 821 q 544 1049 363 1049 q 774 1036 549 1049 q 733 589 733 956 q 747 194 733 272 q 774 96 760 115 q 824 76 789 76 q 924 115 858 76 l 929 104 q 767 -15 854 38 q 681 32 704 -15 q 658 85 667 60 q 644 165 650 110 q 636 382 639 240 l 383 382 q 353 319 374 364 q 285 200 308 232 q -46 -11 131 -11 l -132 -11 l -67 78 q 41 65 -17 65 q 131 92 99 65 q 211 197 164 118 q 413 569 258 276 q 633 967 567 863 m 635 450 q 633 586 633 501 q 635 758 633 671 q 636 849 636 844 q 523 635 594 774 q 426 450 451 496 l 635 450 z "},"B":{"ha":932,"x_min":-12,"x_max":885,"o":"m 131 882 q 319 1003 203 960 q 581 1047 435 1047 q 796 999 726 1047 q 865 879 865 950 q 815 728 865 808 q 692 599 765 649 q 838 533 790 582 q 885 401 885 483 q 817 223 885 319 q 639 63 749 126 q 419 0 529 0 l 117 0 l 111 11 q 271 246 232 36 q 319 528 296 376 q 356 749 343 679 q 424 974 383 919 l 425 975 q 175 868 272 972 q 78 561 78 764 l -12 483 q 131 882 -12 725 m 619 610 q 717 668 676 610 q 757 801 757 726 q 708 927 757 875 q 557 979 658 979 l 500 976 q 482 917 489 954 q 372 264 389 353 q 268 90 356 175 l 274 79 l 479 79 q 705 156 622 79 q 788 328 788 233 q 724 485 788 424 q 543 550 661 547 l 513 550 l 553 601 l 568 619 q 619 610 592 610 z "},"C":{"ha":725,"x_min":50,"x_max":761,"o":"m 572 1043 q 761 1015 668 1043 l 681 911 q 524 983 604 965 q 340 899 429 982 q 198 685 251 815 q 144 427 144 554 q 199 201 144 300 q 357 76 254 101 q 601 206 451 93 l 614 194 q 482 69 564 132 q 332 -11 400 7 q 169 39 236 -11 q 50 314 50 131 q 123 643 50 474 q 319 928 196 813 q 572 1043 443 1043 z "},"D":{"ha":1017,"x_min":15,"x_max":961,"o":"m 369 1018 q 573 1047 464 1047 q 758 1018 682 1047 q 876 939 833 989 q 961 686 961 839 q 917 456 961 576 q 797 234 872 336 q 609 66 722 132 q 372 0 496 0 l 122 0 l 117 11 q 276 246 238 36 q 325 528 301 378 q 361 750 349 679 q 429 975 389 919 q 215 878 315 975 q 136 748 167 831 q 106 561 106 665 l 15 483 q 100 817 15 679 q 369 1018 189 963 m 471 79 q 676 161 583 79 q 818 363 769 243 q 867 584 867 483 q 848 750 867 685 q 789 868 829 815 q 508 979 706 979 q 485 902 492 944 q 458 731 478 860 q 379 258 425 519 q 274 90 365 178 l 279 79 l 471 79 z "},"E":{"ha":868,"x_min":-11,"x_max":876,"o":"m 586 529 l 400 532 q 354 267 374 361 q 249 90 335 174 l 254 79 l 583 76 q 607 75 594 75 q 786 131 707 75 l 792 119 q 629 -1 679 33 l 97 0 l 92 11 q 251 246 213 36 q 299 520 276 376 q 332 735 321 664 q 393 964 360 908 l 336 964 q 141 888 197 964 q 85 628 85 813 l -11 553 q 46 824 -11 711 q 240 1015 103 936 q 447 1043 289 1043 l 665 1043 q 876 1044 831 1043 l 799 963 l 476 964 q 463 917 467 938 l 415 618 l 435 618 l 599 613 q 733 626 671 613 l 740 621 q 674 557 715 585 q 586 529 633 529 z "},"F":{"ha":842,"x_min":-12,"x_max":886,"o":"m 596 529 l 410 532 q 387 401 401 481 q 369 304 372 322 q 263 66 342 144 q 71 -12 185 -12 q 63 -12 67 -12 l -12 -11 l 53 78 q 149 65 103 65 q 217 88 194 65 q 253 179 239 111 q 311 531 282 333 q 359 826 340 728 q 403 964 378 924 l 346 964 q 151 888 207 964 q 94 628 94 813 l -1 553 q 56 824 -1 711 q 250 1015 113 936 q 457 1043 299 1043 l 675 1043 q 886 1044 840 1043 l 808 963 l 486 964 q 472 917 476 938 l 425 618 q 450 618 436 618 l 608 613 q 743 626 681 613 l 750 621 q 684 557 725 585 q 596 529 643 529 z "},"G":{"ha":835,"x_min":49,"x_max":825,"o":"m 49 353 q 49 413 49 353 q 94 593 49 472 q 217 819 139 714 q 397 990 296 924 q 593 1056 497 1056 q 825 1035 733 1056 l 754 949 q 551 988 658 988 q 345 892 443 988 q 195 658 247 797 q 143 391 143 519 q 197 181 143 263 q 357 74 250 99 q 551 193 460 92 q 572 314 560 235 q 614 521 603 489 q 408 497 458 521 l 393 508 l 508 594 q 747 599 550 599 l 749 593 q 709 550 729 582 q 682 472 689 518 q 591 20 624 129 q 465 -190 558 -89 l 471 -201 q 601 -210 536 -210 q 721 -203 667 -210 l 726 -214 q 633 -278 663 -258 l 314 -281 l 308 -269 q 451 -124 396 -214 q 546 149 506 -33 q 331 -14 463 24 q 83 147 150 -14 q 49 353 49 233 z "},"H":{"ha":1113,"x_min":-12,"x_max":1096,"o":"m 444 1042 l 575 1042 l 576 1038 q 543 997 563 1028 q 506 903 524 965 q 458 614 488 842 l 878 613 q 920 861 907 796 q 957 964 933 926 q 874 965 928 965 q 754 956 821 965 l 753 958 q 850 1026 796 1010 q 1019 1043 904 1043 l 1094 1043 l 1096 1039 q 1028 917 1043 1006 q 981 634 1021 874 q 919 258 942 394 q 814 90 906 178 l 819 79 l 904 79 q 1081 131 1004 79 l 1086 119 q 1024 67 1040 82 q 992 40 1007 53 q 968 22 976 28 q 950 11 960 17 q 924 -1 932 -1 q 663 0 754 -1 l 657 11 q 817 246 778 36 q 868 543 833 335 l 447 546 q 408 304 424 390 q 301 66 379 144 q 110 -12 222 -12 q 101 -12 106 -12 l 26 -11 l 92 78 q 187 65 142 65 q 253 88 232 65 q 288 179 274 110 q 350 547 319 349 q 398 838 381 746 q 436 964 415 929 l 332 965 q 328 965 329 965 q 140 888 196 965 q 83 628 83 811 l -12 553 q 44 824 -12 711 q 239 1015 101 936 q 444 1042 285 1042 z "},"I":{"ha":613,"x_min":-7,"x_max":592,"o":"m 429 -1 l 139 0 l 133 11 q 293 246 254 36 q 357 623 326 429 q 402 876 388 817 q 433 964 417 936 l 340 964 q 145 888 201 964 q 89 628 89 813 l -7 553 q 50 824 -7 711 q 244 1015 107 936 q 446 1043 293 1043 l 571 1043 l 572 1039 q 504 917 519 1006 q 475 731 494 860 q 396 258 442 519 q 290 90 376 172 l 296 79 q 376 78 329 78 q 477 85 422 78 q 586 131 532 93 l 592 119 q 429 -1 450 0 z "},"J":{"ha":699,"x_min":-75,"x_max":676,"o":"m 550 1043 l 675 1043 l 676 1039 q 636 994 656 1026 q 610 917 617 963 q 456 15 547 494 q 354 -165 438 -76 q 157 -281 271 -253 q -44 -189 75 -281 q -75 -167 -74 -168 l 6 -112 q 53 -155 35 -140 q 108 -187 71 -169 q 179 -206 144 -206 q 305 -144 251 -206 q 375 36 358 -83 q 513 893 431 431 q 542 964 521 939 l 446 964 q 251 888 307 964 q 194 628 194 813 l 99 553 q 156 824 99 711 q 350 1015 213 936 q 550 1043 399 1043 z "},"K":{"ha":1006,"x_min":-8,"x_max":1032,"o":"m 449 1042 l 579 1042 l 581 1038 q 547 997 567 1028 q 513 913 528 965 q 476 738 497 861 q 438 478 456 614 q 413 304 419 343 q 307 68 383 147 q 115 -11 231 -11 l 31 -11 l 96 78 q 191 65 146 65 q 257 88 236 65 q 292 179 278 110 q 354 547 324 349 q 402 838 385 746 q 440 965 419 931 l 329 965 q 142 887 197 965 q 88 628 88 808 l -8 553 q 49 824 -8 711 q 243 1015 106 936 q 449 1042 289 1042 m 1032 994 l 928 925 q 822 951 876 951 q 720 910 768 951 q 647 808 672 869 q 596 582 596 688 q 794 215 679 407 q 1007 -108 908 24 l 958 -157 q 500 471 728 93 q 538 705 500 600 q 630 871 576 810 q 747 974 683 932 q 924 1044 854 1044 q 1032 994 994 1044 z "},"L":{"ha":582,"x_min":-69,"x_max":819,"o":"m 819 -154 q 732 -239 792 -207 q 613 -271 672 -271 q 490 -242 553 -271 q 369 -172 428 -212 q 253 -89 311 -131 q 21 11 115 11 q -64 0 -19 11 l -69 11 q 90 246 51 36 q 148 590 128 440 q 174 778 168 740 q 292 963 190 881 q 507 1044 394 1044 q 646 996 583 1044 l 564 926 q 415 990 479 990 q 282 818 311 990 q 231 496 260 692 q 193 258 201 300 q 88 90 176 175 l 93 79 q 332 -21 196 79 q 444 -106 389 -62 q 674 -206 579 -206 q 807 -143 746 -206 l 819 -154 z "},"M":{"ha":1378,"x_min":-40,"x_max":1333,"o":"m 600 968 l 454 972 q 268 943 319 972 q 220 906 246 931 q 181 844 194 881 q 147 629 147 758 q 51 554 104 600 q 228 967 51 822 q 513 1050 331 1050 q 740 1036 556 1050 q 765 408 765 772 l 765 253 q 898 599 815 422 q 1076 908 981 776 q 1242 1054 1171 1039 q 1190 343 1190 596 q 1207 92 1190 200 q 1328 131 1263 92 l 1333 119 q 1117 -22 1233 32 q 1090 308 1090 108 q 1140 849 1090 611 q 929 533 1038 763 q 789 224 867 400 q 678 -26 711 49 l 672 -25 l 674 47 q 660 506 674 189 q 646 872 646 822 l 646 889 l 397 240 q 263 61 356 132 q 44 -10 169 -10 l -40 -10 l 25 79 q 123 67 75 67 q 203 78 171 67 q 258 115 236 89 q 290 162 279 142 q 315 224 300 182 l 581 936 q 600 968 589 958 z "},"N":{"ha":1124,"x_min":-40,"x_max":1099,"o":"m 417 1042 l 539 1042 q 807 157 706 588 q 851 448 821 239 q 907 784 882 657 q 960 964 932 911 q 877 965 931 965 q 757 956 824 965 l 756 958 q 853 1026 799 1010 q 1022 1043 907 1043 l 1097 1043 l 1099 1039 q 1031 917 1046 1006 l 925 303 q 862 94 901 165 q 742 -14 822 22 l 736 -3 l 774 18 q 624 457 717 192 q 469 910 531 722 q 424 606 447 803 q 383 317 400 410 q 276 78 354 157 q 85 0 197 0 q 76 0 81 0 l 1 1 l 67 90 q 162 78 117 78 q 228 100 207 78 q 263 192 249 122 q 324 560 296 365 q 369 844 353 754 q 404 964 385 933 l 304 965 q 300 965 301 965 q 112 888 168 965 q 56 628 56 811 l -40 553 q 17 824 -40 711 q 211 1015 74 936 q 417 1042 257 1042 z "},"O":{"ha":808,"x_min":49,"x_max":756,"o":"m 547 1046 q 704 917 653 1015 q 756 677 756 818 q 693 391 756 536 q 519 137 631 246 q 275 -7 407 28 q 106 113 163 22 q 49 329 49 203 q 195 776 49 560 q 547 1046 342 992 m 661 596 q 615 826 661 726 q 475 968 569 926 q 238 759 333 925 q 143 413 143 593 q 194 200 143 292 q 347 71 244 108 q 572 267 482 111 q 661 596 661 424 z "},"P":{"ha":907,"x_min":-12,"x_max":900,"o":"m 131 882 q 319 1003 203 960 q 586 1047 435 1047 q 819 993 738 1047 q 900 849 900 939 q 858 699 900 781 q 735 556 817 618 q 557 493 653 493 q 526 494 536 493 l 582 564 q 633 554 606 554 q 754 617 713 554 q 796 769 796 681 q 728 918 796 857 q 539 979 661 979 l 513 979 q 490 903 497 947 q 461 731 482 860 q 383 258 429 519 q 278 90 369 178 l 283 79 l 368 79 q 544 131 468 79 l 550 119 q 488 67 504 82 q 456 40 471 53 q 432 22 440 28 q 414 11 424 17 q 388 -1 396 -1 q 126 0 218 -1 l 121 11 q 281 246 242 36 q 347 635 318 451 q 394 881 376 818 q 435 975 411 944 q 178 872 279 975 q 78 561 78 768 l -12 483 q 131 882 -12 725 z "},"Q":{"ha":901,"x_min":7,"x_max":879,"o":"m 96 536 q 243 896 96 746 q 618 1046 390 1046 q 773 920 722 1015 q 824 701 824 825 q 681 339 824 519 q 349 65 539 158 q 456 14 376 54 q 706 -65 610 -65 q 865 -18 768 -65 l 879 -33 q 613 -144 733 -144 q 383 -53 522 -144 q 256 11 333 -18 q 117 40 178 40 q 13 29 57 40 l 7 40 l 119 110 q 224 89 172 89 q 408 142 314 89 q 572 276 501 196 q 686 451 642 356 q 731 642 731 547 q 685 833 731 738 q 546 968 639 928 q 190 594 190 968 q 321 386 190 440 l 236 310 q 134 392 172 332 q 96 536 96 451 z "},"R":{"ha":1001,"x_min":-8,"x_max":1011,"o":"m 136 882 q 323 1003 207 960 q 590 1047 439 1047 q 823 993 742 1047 q 904 842 904 939 q 824 660 904 746 q 608 543 744 575 q 1011 -110 824 124 l 969 -157 q 476 532 694 142 l 522 581 l 576 581 q 741 637 682 581 q 800 775 800 693 q 733 918 800 857 q 543 979 665 979 l 517 979 q 494 903 501 947 q 467 731 486 860 q 388 258 433 519 q 282 90 374 178 l 288 79 l 372 79 q 549 131 472 79 l 554 119 q 492 67 508 82 q 460 40 475 53 q 436 22 444 28 q 418 11 428 17 q 392 -1 400 -1 q 131 0 222 -1 l 125 11 q 285 246 246 36 q 351 635 322 451 q 398 881 381 818 q 439 975 415 944 q 183 872 283 975 q 82 561 82 768 l -8 483 q 136 882 -8 725 z "},"S":{"ha":685,"x_min":-35,"x_max":671,"o":"m 153 800 q 247 982 153 908 q 458 1056 342 1056 q 671 1019 574 1056 l 592 928 q 406 969 500 969 q 229 890 229 969 q 274 767 229 839 q 374 634 319 696 q 473 498 428 572 q 518 369 518 424 q 418 102 518 215 q 183 -11 318 -11 q -35 53 47 -11 l 44 142 q 254 68 161 68 q 377 128 321 68 q 433 251 433 188 q 390 391 433 314 q 293 530 346 468 q 197 667 240 592 q 153 800 153 742 z "},"T":{"ha":797,"x_min":-8,"x_max":949,"o":"m 871 963 l 576 964 q 563 917 567 938 q 454 258 471 350 q 349 90 435 172 l 354 79 l 429 75 q 632 131 556 75 l 638 119 q 475 -1 525 33 l 197 0 l 192 11 q 351 246 313 36 q 399 520 376 376 q 432 735 421 664 q 493 964 460 908 l 339 964 q 144 888 200 964 q 88 628 88 813 l -8 553 q 49 824 -8 711 q 243 1015 106 936 q 353 1040 281 1038 q 547 1043 426 1043 l 765 1043 q 949 1044 908 1043 l 871 963 z "},"U":{"ha":1115,"x_min":-12,"x_max":1099,"o":"m 444 1042 l 575 1042 l 576 1038 q 543 997 563 1028 q 513 925 524 965 q 413 260 413 381 q 524 90 413 90 q 623 140 571 90 q 715 258 675 189 q 824 515 801 410 l 913 964 q 950 1007 922 989 q 998 1031 978 1025 q 1053 1043 1018 1036 l 1054 1039 q 986 917 1001 1006 q 954 733 978 868 q 875 216 875 279 q 903 122 875 153 q 980 92 932 92 q 1093 131 1028 92 l 1099 119 q 936 0 1024 53 q 793 196 793 1 q 810 356 793 256 l 803 356 q 642 110 754 222 q 443 -1 529 -1 q 311 221 311 -1 q 324 373 311 294 q 350 553 336 451 l 372 708 q 408 896 393 850 q 436 965 422 942 l 325 965 q 138 887 193 965 q 83 628 83 808 l -12 553 q 44 824 -12 711 q 239 1015 101 936 q 444 1042 285 1042 z "},"V":{"ha":958,"x_min":-21,"x_max":1046,"o":"m 386 1051 q 499 983 458 1051 q 556 821 543 907 q 576 674 569 735 q 586 525 582 614 q 590 186 590 403 q 631 284 603 229 q 744 500 658 339 q 942 918 942 871 q 892 950 942 950 l 813 950 l 811 956 l 913 1018 l 967 1018 q 1046 963 1046 1018 q 979 799 1046 926 q 875 602 913 671 q 797 460 838 533 q 696 278 756 386 q 575 39 636 171 l 482 -12 q 497 256 497 103 q 488 522 497 410 q 460 740 479 635 q 402 909 440 846 q 313 972 364 972 q 163 907 236 972 q 99 800 124 872 q 75 629 75 728 q -21 554 32 600 q 100 903 -21 754 q 386 1051 221 1051 z "},"W":{"ha":1358,"x_min":-21,"x_max":1411,"o":"m 386 1051 q 585 501 585 1051 q 572 213 585 360 q 754 606 650 350 q 894 946 858 861 l 1057 1046 l 1065 1036 q 964 683 964 917 q 1000 189 964 553 q 1177 527 1071 283 q 1283 885 1283 771 q 1239 950 1283 950 l 1174 950 l 1172 956 l 1278 1018 l 1332 1018 q 1411 979 1411 1018 l 1411 974 q 1326 698 1388 854 q 1211 439 1264 542 q 1000 35 1133 283 l 950 -14 q 892 335 908 200 q 876 669 876 469 l 876 746 q 713 364 765 475 q 546 39 660 253 l 450 -12 l 460 67 q 481 442 481 231 q 313 972 481 972 q 163 907 236 972 q 99 800 124 872 q 75 629 75 728 q -21 554 32 600 q 100 903 -21 754 q 386 1051 221 1051 z "},"X":{"ha":1039,"x_min":-28,"x_max":1140,"o":"m 860 989 q 874 1001 860 989 q 930 1032 889 1013 q 1030 1051 971 1051 q 1140 1024 1089 1051 l 1072 939 q 957 992 997 992 q 854 910 903 992 q 664 565 818 849 l 672 526 q 764 228 701 381 q 875 75 826 75 q 1065 172 947 75 l 1078 161 q 966 57 1032 107 q 833 -11 900 7 q 588 429 708 -11 q 418 206 497 296 q 160 18 293 61 q 57 0 106 0 l -28 0 l 38 90 q 149 78 88 78 q 254 110 210 78 q 355 222 299 143 q 563 538 411 300 l 554 574 q 446 928 494 844 q 385 997 418 975 q 237 927 285 997 q 189 706 189 857 l 93 631 q 182 929 93 807 q 446 1051 271 1051 q 536 992 501 1051 q 593 861 576 921 q 633 692 615 775 l 640 660 q 655 686 644 665 q 690 749 665 707 q 734 824 714 790 q 792 912 754 858 q 860 989 831 965 z "},"Y":{"ha":936,"x_min":-21,"x_max":1015,"o":"m 319 1051 q 405 1002 365 1051 q 482 831 444 953 q 535 644 519 708 q 606 328 578 469 q 852 770 794 657 q 910 908 910 883 q 884 941 910 932 q 782 950 858 950 l 781 956 l 885 1018 l 939 1018 q 1015 963 1015 1018 q 804 528 1015 900 q 711 364 714 369 q 447 -71 543 49 q 211 -254 351 -190 q -21 -140 107 -240 l 60 -82 q 236 -165 150 -165 q 367 -83 303 -165 q 544 214 432 0 q 503 376 535 249 q 452 574 471 504 q 404 744 433 644 q 300 997 347 939 q 163 927 207 997 q 118 706 118 857 l 22 631 q 110 923 22 794 q 319 1051 197 1051 z "},"Z":{"ha":746,"x_min":-35,"x_max":904,"o":"m 138 931 q 236 1021 172 988 q 378 1054 300 1054 q 549 1026 456 1054 q 693 997 642 997 q 894 1049 781 997 l 904 1039 q 517 561 769 917 q 320 310 426 433 q 136 136 214 186 l 142 125 q 299 87 217 125 q 440 3 381 49 q 581 -80 500 -42 q 733 -118 661 -118 q 851 -43 804 -118 l 868 -47 q 784 -155 850 -112 q 649 -197 718 -197 q 498 -156 579 -197 q 350 -63 417 -114 q 201 29 283 -12 q 67 71 118 71 q -29 60 15 71 l -35 71 q 253 378 150 267 q 484 645 356 490 q 697 925 613 800 q 633 921 661 921 q 460 956 557 921 q 314 992 363 992 q 236 983 265 992 q 167 749 167 919 l 71 674 q 138 931 71 821 z "},"[":{"ha":583,"x_min":157,"x_max":614,"o":"m 326 1139 l 614 1139 l 589 1107 l 411 1107 q 244 -89 297 344 l 449 -89 l 422 -122 l 157 -122 q 326 1139 217 394 z "},"\\":{"ha":679,"x_min":90,"x_max":543,"o":"m 158 1164 q 543 -40 349 475 l 486 -115 q 90 1094 318 344 l 158 1164 z "},"]":{"ha":575,"x_min":-8,"x_max":454,"o":"m 188 1139 l 454 1139 q 279 -122 385 590 l -8 -122 l 18 -89 l 203 -89 q 363 1107 286 497 l 163 1107 l 188 1139 z "},"^":{"ha":933,"x_min":75,"x_max":821,"o":"m 482 968 q 821 467 733 621 l 758 406 q 444 853 736 438 q 92 422 326 686 l 75 442 q 482 968 264 703 z "},"_":{"ha":883,"x_min":85,"x_max":839,"o":"m 160 -1 l 839 -1 l 764 -76 l 85 -76 l 160 -1 z "},"`":{"ha":569,"x_min":118,"x_max":418,"o":"m 129 1053 q 319 956 236 1053 q 418 825 356 913 l 397 800 q 226 961 293 921 q 172 987 203 975 q 139 999 142 999 l 118 1053 q 129 1053 124 1053 z "},"a":{"ha":569,"x_min":4,"x_max":671,"o":"m 353 694 q 488 688 453 694 l 479 647 q 444 456 467 583 q 361 75 410 222 l 365 72 q 657 397 486 160 l 671 388 q 469 128 571 242 q 300 -14 368 15 q 299 52 299 3 q 306 153 299 101 q 328 279 313 206 q 353 400 344 353 l 349 403 q 190 160 263 257 q 22 -21 118 64 q 4 161 4 42 q 41 414 4 281 q 150 621 78 547 q 353 694 222 694 m 301 624 q 157 581 190 624 q 107 401 124 538 q 90 192 90 265 q 99 93 90 118 q 143 140 113 93 q 175 188 174 186 q 308 403 228 253 q 388 615 388 554 q 301 624 358 624 z "},"b":{"ha":533,"x_min":24,"x_max":517,"o":"m 163 58 q 333 176 267 58 q 399 460 399 294 q 378 583 399 531 q 195 351 282 486 q 94 79 108 217 q 163 58 94 58 m 449 1182 q 517 1175 489 1182 l 460 1100 q 381 1108 421 1108 q 315 1094 340 1108 q 272 1053 289 1081 q 242 999 254 1026 q 221 930 229 972 q 208 861 213 888 q 192 736 200 819 q 166 517 185 692 q 143 318 147 343 q 450 718 331 663 q 472 672 463 708 q 482 578 482 636 q 468 438 482 519 q 422 273 454 356 q 340 128 389 190 q 213 26 290 65 q 39 -12 135 -12 q 24 71 24 15 q 125 842 31 132 q 239 1075 142 968 q 449 1182 336 1182 z "},"c":{"ha":432,"x_min":8,"x_max":538,"o":"m 328 714 q 436 676 396 714 l 375 604 q 292 658 343 658 q 159 539 215 658 q 103 265 103 419 q 194 60 103 110 q 524 432 338 163 l 538 424 q 324 142 433 268 q 142 -14 215 17 q 63 31 104 -14 q 24 115 39 57 q 8 265 8 174 q 46 446 8 356 q 137 592 83 536 q 242 681 190 649 q 328 714 294 714 z "},"d":{"ha":583,"x_min":4,"x_max":814,"o":"m 746 1182 q 814 1175 786 1182 l 757 1100 q 675 1108 718 1108 q 603 1088 632 1108 q 557 1039 574 1067 q 527 964 540 1011 q 509 885 514 917 q 498 802 504 854 q 485 714 492 750 q 460 522 479 678 q 422 256 442 365 q 374 75 403 146 l 378 72 q 669 397 494 157 l 683 388 q 482 128 583 242 q 313 -14 381 15 q 310 62 310 19 q 330 215 310 104 q 353 357 350 326 q 364 400 357 388 l 360 403 q 301 308 354 394 q 219 179 249 222 q 135 76 190 136 q 32 -11 81 15 q 4 149 4 49 q 38 386 4 250 q 157 619 85 542 q 349 696 229 696 q 396 689 378 696 l 422 842 q 540 1076 444 969 q 746 1182 635 1182 m 297 625 q 166 576 203 625 q 113 382 129 526 q 97 183 97 238 q 111 86 97 128 q 386 611 297 283 q 297 625 356 625 z "},"e":{"ha":414,"x_min":7,"x_max":517,"o":"m 290 658 q 175 572 221 658 q 108 353 129 486 q 261 488 194 408 q 328 613 328 567 q 290 658 328 658 m 60 469 q 87 524 60 469 q 191 647 114 579 q 338 714 268 714 q 408 658 408 714 q 101 319 408 524 q 100 281 100 304 q 194 54 100 124 q 503 397 332 160 l 517 388 q 315 128 417 242 q 146 -14 214 15 q 42 78 76 3 q 7 257 7 154 q 60 469 7 360 z "},"f":{"ha":311,"x_min":-264,"x_max":564,"o":"m 468 1182 q 564 1161 526 1182 l 507 1086 q 406 1108 457 1108 q 325 1088 354 1108 q 279 1039 296 1067 q 249 964 263 1011 q 231 885 236 917 q 220 802 226 854 q 210 730 214 750 q 204 692 206 710 l 388 701 q 371 661 372 661 q 196 631 328 640 q 128 98 156 292 q 15 -197 100 -96 q -203 -299 -71 -299 q -264 -290 -233 -299 l -211 -214 q -126 -225 -169 -225 q 33 -11 6 -225 q 119 625 38 22 l -8 619 q 31 683 29 683 q 129 688 74 685 q 143 792 138 757 q 258 1074 167 967 q 468 1182 350 1182 z "},"g":{"ha":579,"x_min":-36,"x_max":500,"o":"m 322 625 q 191 576 228 625 q 138 382 154 526 q 122 183 122 238 q 136 86 122 128 q 411 611 322 283 q 322 625 381 625 m 374 696 l 500 696 q 467 429 490 625 q 425 104 443 233 q 310 -194 399 -89 q 71 -299 222 -299 q -36 -286 14 -299 l 18 -201 q 131 -219 78 -219 q 271 -180 229 -219 q 332 11 313 -140 q 389 400 379 383 l 385 403 q 353 349 381 396 q 313 281 325 301 q 272 217 300 261 q 222 146 243 172 q 172 86 201 119 q 57 -11 117 19 q 29 148 29 49 q 63 386 29 247 q 374 696 138 696 z "},"h":{"ha":618,"x_min":32,"x_max":719,"o":"m 460 1182 q 528 1175 500 1182 l 471 1100 q 392 1108 432 1108 q 326 1095 351 1108 q 282 1053 300 1082 q 252 999 264 1025 q 231 930 240 974 q 218 862 222 886 q 209 792 214 838 q 203 736 204 746 l 140 261 q 488 714 358 653 q 511 597 511 696 q 464 304 511 499 q 411 75 417 110 l 414 72 q 706 397 535 160 l 719 388 q 518 128 619 242 q 349 -14 417 15 q 346 39 346 19 q 378 308 346 126 q 410 588 410 489 q 224 347 322 510 q 64 -14 126 183 q 32 75 32 22 q 35 101 32 85 l 136 842 q 251 1072 153 961 q 460 1182 349 1182 z "},"i":{"ha":307,"x_min":26,"x_max":413,"o":"m 40 -14 q 38 65 38 19 q 49 191 38 111 q 85 406 60 271 q 124 629 110 542 l 26 558 l 29 574 q 56 609 39 588 q 122 669 74 631 q 214 715 171 708 q 185 506 206 661 q 103 76 143 189 l 106 72 q 397 397 225 157 l 413 388 q 211 128 313 242 q 40 -14 110 15 m 244 1021 q 246 969 246 1010 q 154 831 246 878 q 171 954 168 868 l 244 1021 z "},"j":{"ha":276,"x_min":-282,"x_max":251,"o":"m -214 -300 q -282 -293 -254 -300 l -225 -204 q -147 -212 -186 -212 q -85 -203 -108 -212 q -44 -182 -61 -194 q -14 -143 -28 -169 q 8 -97 0 -117 q 23 -36 15 -76 q 34 29 31 4 q 44 106 38 54 q 56 185 51 157 l 121 629 l 24 558 l 26 574 q 53 609 36 588 q 119 669 71 631 q 211 715 168 708 l 146 231 q 13 -164 111 -28 q -214 -300 -85 -300 m 250 1017 q 251 965 251 1006 q 160 826 251 874 q 176 950 174 864 l 250 1017 z "},"k":{"ha":632,"x_min":28,"x_max":740,"o":"m 203 781 l 164 468 q 296 644 217 575 q 458 714 375 714 q 525 644 525 714 q 319 388 525 493 q 372 227 339 340 q 414 72 406 114 q 562 201 467 101 q 726 397 657 300 l 740 388 q 539 128 640 242 q 369 -14 438 15 q 277 186 336 43 q 201 365 218 329 q 378 473 310 410 q 447 607 447 536 q 406 658 447 658 q 318 622 357 658 q 238 515 279 586 q 174 376 197 444 q 138 256 150 308 q 106 116 125 203 q 76 -12 88 29 q 28 81 28 19 q 29 101 28 94 l 131 842 q 245 1072 147 961 q 454 1182 343 1182 q 522 1175 494 1182 l 465 1100 q 383 1108 426 1108 q 309 1085 339 1108 q 262 1032 279 1063 q 232 951 244 1001 q 203 781 203 835 z "},"l":{"ha":314,"x_min":25,"x_max":528,"o":"m 460 1182 q 528 1175 500 1182 l 471 1100 q 389 1108 432 1108 q 317 1088 346 1108 q 271 1039 288 1067 q 241 964 254 1011 q 223 885 228 917 q 212 802 218 854 q 199 713 206 750 q 175 522 193 676 q 89 75 136 190 l 93 72 q 410 432 226 168 l 424 424 q 210 142 319 268 q 28 -14 101 17 q 25 64 25 19 q 44 246 25 108 q 94 575 63 383 q 136 842 125 767 q 250 1071 153 960 q 460 1182 347 1182 z "},"m":{"ha":904,"x_min":26,"x_max":1006,"o":"m 482 714 q 507 626 507 694 q 476 428 507 557 q 442 267 446 300 l 446 264 q 608 547 518 417 q 772 714 699 676 q 796 605 796 694 q 749 317 796 515 q 696 75 703 119 l 700 72 q 992 397 824 161 l 1006 388 q 808 131 910 246 q 635 -14 706 15 q 632 39 632 19 q 663 307 632 128 q 694 581 694 486 l 689 583 q 515 342 608 504 q 367 -14 422 179 q 336 56 336 14 q 370 276 336 81 q 404 581 404 472 l 399 583 q 225 342 318 504 q 76 -14 132 179 q 44 68 44 22 q 56 200 44 114 q 78 358 67 286 q 106 523 90 429 q 122 622 121 617 l 118 625 l 26 558 l 29 574 q 56 609 39 588 q 122 669 74 631 q 214 715 171 708 q 185 499 204 657 q 151 267 165 342 l 156 264 q 318 547 228 417 q 482 714 408 676 z "},"n":{"ha":633,"x_min":28,"x_max":735,"o":"m 501 714 q 525 604 525 694 q 476 301 525 514 q 425 75 428 88 l 429 72 q 721 397 553 161 l 735 388 q 537 131 639 246 q 364 -14 435 15 q 361 39 361 19 q 392 307 361 128 q 424 581 424 486 l 418 583 q 238 345 335 508 q 78 -14 140 182 q 46 75 46 22 q 104 497 46 119 l 124 622 l 119 625 l 28 558 l 31 574 q 58 609 40 588 q 124 669 75 631 q 215 715 172 708 q 186 499 206 657 q 153 267 167 342 l 157 264 q 331 551 239 424 q 501 714 424 678 z "},"o":{"ha":510,"x_min":7,"x_max":451,"o":"m 451 451 q 351 167 451 308 q 121 -12 251 25 q 38 90 68 11 q 7 247 7 169 q 106 535 7 397 q 338 711 206 674 q 419 606 388 688 q 451 451 451 524 m 99 315 q 101 228 99 261 q 158 43 108 133 q 360 383 360 129 q 357 472 360 438 q 300 656 350 565 q 146 523 193 607 q 99 315 99 439 z "},"p":{"ha":536,"x_min":-167,"x_max":467,"o":"m 142 -200 l -154 -361 l -167 -346 q -40 -243 -67 -292 q 6 -78 -14 -194 q 56 269 25 39 q 111 628 88 500 l 10 563 l 13 578 q 40 613 22 592 q 106 674 57 635 q 197 719 154 713 q 167 544 181 640 q 146 408 153 449 l 150 407 q 424 719 268 624 q 458 632 449 679 q 467 494 467 585 q 431 288 467 403 q 330 86 394 172 q 196 0 265 0 q 107 40 149 0 q 75 -87 90 -18 q 50 -185 60 -156 q 22 -239 40 -215 l 26 -246 q 133 -179 29 -244 l 142 -200 m 199 75 q 331 157 294 75 q 367 461 367 239 q 354 596 367 564 q 235 483 310 578 q 138 287 161 389 q 111 97 115 185 q 153 82 122 89 q 199 75 183 75 z "},"q":{"ha":539,"x_min":4,"x_max":517,"o":"m 297 625 q 166 576 203 625 q 113 382 129 526 q 97 183 97 238 q 111 86 97 128 q 386 611 297 283 q 297 625 356 625 m 349 696 l 432 686 q 508 719 475 686 l 517 701 q 472 625 478 669 q 440 402 465 571 q 406 179 415 233 q 373 -1 379 43 q 360 -85 367 -46 q 350 -139 354 -125 q 296 -237 336 -190 l 303 -244 q 413 -178 324 -233 l 424 -201 l 129 -372 l 114 -343 q 233 -267 190 -311 q 272 -171 263 -236 q 280 -108 275 -153 q 296 13 285 -64 q 328 208 307 90 q 353 357 349 326 q 364 400 357 388 l 360 403 q 328 349 356 396 q 288 281 300 301 q 247 217 275 261 q 197 146 218 172 q 147 86 176 119 q 32 -11 92 19 q 4 148 4 49 q 38 386 4 247 q 349 696 113 696 z "},"r":{"ha":410,"x_min":24,"x_max":504,"o":"m 456 715 q 504 701 485 715 l 460 625 q 410 638 440 638 q 264 485 343 638 q 114 51 185 333 l 38 -14 q 35 65 35 19 q 46 191 35 111 q 82 406 57 271 q 121 629 107 542 l 24 558 l 26 574 q 53 609 36 588 q 119 669 71 631 q 211 715 168 708 q 184 524 201 656 q 157 331 167 393 l 167 331 q 306 617 238 519 q 456 715 375 715 z "},"s":{"ha":421,"x_min":-47,"x_max":404,"o":"m 156 665 q 290 714 217 714 q 404 676 364 714 l 339 600 q 242 658 322 658 q 169 633 197 658 q 142 572 142 607 q 150 522 142 539 q 163 496 158 504 q 177 473 167 488 q 192 453 188 458 q 211 433 197 449 q 253 383 225 417 q 331 218 331 296 q 238 65 331 140 q 66 -11 146 -11 q -47 26 -14 -11 l 22 90 q 139 47 71 47 q 222 83 181 47 q 263 158 263 118 q 156 346 263 229 q 107 400 124 381 q 72 454 90 419 q 53 515 53 489 q 156 665 53 585 z "},"t":{"ha":315,"x_min":0,"x_max":422,"o":"m 200 707 q 313 710 269 710 q 404 704 356 710 l 331 638 q 239 640 275 640 l 189 640 l 182 586 q 88 75 133 186 l 92 72 q 408 432 225 168 l 422 424 q 209 142 318 268 q 26 -14 100 17 q 24 42 24 19 q 26 94 24 65 q 37 176 29 124 q 52 278 44 229 q 77 435 60 328 q 110 639 94 542 q 0 633 69 639 l 38 692 q 118 703 75 699 l 128 768 l 215 818 l 200 707 z "},"u":{"ha":638,"x_min":26,"x_max":747,"o":"m 349 39 q 408 435 349 156 l 404 438 q 237 151 325 278 q 74 -12 149 24 q 58 115 58 39 q 79 340 58 192 l 117 624 l 26 558 l 29 574 q 56 609 39 588 q 122 669 74 631 q 214 715 171 708 q 139 149 139 332 q 146 92 139 126 q 294 287 214 158 q 436 575 375 415 q 532 714 481 694 l 433 150 q 413 75 426 113 l 417 72 q 733 432 550 168 l 747 424 q 534 142 643 268 q 351 -14 425 17 q 349 39 349 19 z "},"v":{"ha":474,"x_min":-29,"x_max":454,"o":"m 383 524 l 367 685 q 377 708 367 697 q 401 721 388 719 q 454 678 439 711 q 323 255 411 442 q 132 -8 235 68 q 94 261 99 107 q 93 428 93 313 q 89 642 93 544 l -29 557 l -26 572 q 1 608 -17 586 q 67 668 18 629 q 158 714 115 707 q 185 638 185 690 l 182 274 q 185 86 182 150 q 296 271 236 138 q 383 524 356 404 z "},"w":{"ha":764,"x_min":-29,"x_max":749,"o":"m 185 638 l 182 274 q 185 86 182 150 q 294 269 235 136 q 389 529 354 403 q 375 643 389 538 l 447 719 q 479 617 479 717 l 479 543 l 476 274 q 479 86 476 150 q 590 271 531 138 q 678 524 650 404 l 661 685 q 672 708 661 697 q 696 721 682 719 q 749 678 733 711 q 617 255 706 442 q 426 -8 529 68 q 397 152 401 74 q 391 305 393 231 q 388 413 389 379 l 386 440 q 275 167 343 286 q 132 -8 207 49 q 90 454 90 139 q 89 642 90 617 l -29 557 l -26 572 q 1 608 -17 586 q 67 668 18 629 q 158 714 115 707 q 185 638 185 690 z "},"x":{"ha":506,"x_min":-96,"x_max":546,"o":"m 544 697 l 546 697 l 511 643 q 463 646 483 646 q 433 640 443 646 q 409 616 422 635 q 371 550 396 597 q 272 365 286 393 q 369 57 339 149 q 492 139 413 76 l 499 135 q 409 36 464 82 q 311 -15 354 -10 q 214 271 257 114 q 72 58 122 124 q 23 17 58 40 q -44 -7 -12 -7 q -96 -1 -75 -7 l -94 0 l -94 -1 q -72 26 -83 13 q -51 53 -61 40 q 32 71 1 53 q 86 125 63 89 q 200 307 154 229 q 88 640 151 443 q -26 563 53 624 l -33 567 q 56 665 1 619 q 154 717 111 711 q 258 410 213 578 q 304 499 275 440 q 349 582 333 557 q 392 639 364 607 q 544 697 443 697 z "},"y":{"ha":586,"x_min":-21,"x_max":532,"o":"m 140 138 q 140 106 140 121 l 146 92 q 294 286 214 157 q 435 575 374 415 q 446 601 436 578 q 458 631 456 625 q 471 656 461 638 q 489 682 481 674 q 532 714 511 707 q 523 665 529 693 q 509 596 517 636 q 490 478 501 556 q 463 282 478 401 q 440 104 449 163 q 326 -194 414 -89 q 86 -299 238 -299 q -21 -286 29 -299 l 33 -201 q 146 -219 93 -219 q 286 -180 244 -219 q 344 -11 328 -140 q 408 435 371 206 l 404 438 q 237 151 325 278 q 74 -12 149 24 q 60 107 60 35 q 64 220 60 179 q 82 363 68 261 l 117 624 l 26 558 l 29 574 q 56 609 39 588 q 122 669 74 631 q 214 715 171 708 q 140 138 140 333 z "},"z":{"ha":467,"x_min":-81,"x_max":467,"o":"m 193 703 q 267 697 210 703 q 358 690 324 690 q 458 714 443 690 l 467 710 q 40 101 286 465 q 15 71 32 88 l 19 67 q 101 78 44 78 q 229 67 158 78 q 337 56 300 56 q 428 90 374 56 l 435 82 q 354 13 368 31 q 331 -10 340 -6 q 292 -14 321 -14 q 179 -1 264 -14 q 42 11 94 11 q -67 -12 -10 11 l -81 0 q 336 597 132 296 q 340 608 340 603 q 299 622 340 617 q 232 628 258 628 q 11 557 122 628 l 3 571 q 90 660 36 618 q 193 703 143 703 z "},"{":{"ha":518,"x_min":132,"x_max":538,"o":"m 325 -161 q 169 -6 169 -137 q 206 192 169 60 q 242 381 242 324 q 242 394 242 389 q 150 488 232 482 l 132 489 l 154 526 q 242 586 210 526 q 269 681 263 626 q 278 798 275 735 q 292 921 282 861 q 325 1029 303 981 q 399 1108 347 1078 q 528 1138 450 1138 l 538 1119 q 427 1051 465 1110 q 378 913 389 993 q 358 750 368 832 q 314 600 349 668 q 169 508 268 508 l 167 504 q 213 499 196 504 q 314 354 314 463 q 283 156 314 290 q 251 -40 251 21 q 339 -142 251 -137 l 325 -161 z "},"|":{"ha":357,"x_min":160,"x_max":240,"o":"m 240 1244 l 224 -235 l 163 -296 l 160 1186 l 240 1244 z "},"}":{"ha":503,"x_min":51,"x_max":436,"o":"m 296 982 q 203 1119 296 1107 l 214 1138 q 381 1003 367 1138 q 381 979 381 1000 q 360 836 381 958 q 339 673 339 714 q 340 618 339 632 q 390 531 347 546 q 436 522 403 524 l 421 489 q 328 453 361 488 q 285 364 294 418 q 274 244 276 310 q 267 110 272 178 q 245 -16 263 42 q 179 -114 228 -74 q 51 -162 131 -154 l 57 -142 q 169 -11 150 -136 q 183 114 179 46 q 194 249 186 182 q 219 373 201 317 q 283 465 238 429 q 400 504 328 501 l 404 508 l 394 508 q 268 667 268 508 q 282 826 268 725 q 296 982 296 928 z "},"~":{"ha":1042,"x_min":111,"x_max":939,"o":"m 381 481 q 555 438 424 481 q 782 396 686 396 q 921 435 840 396 l 939 418 q 747 325 864 325 q 542 365 661 325 q 367 406 422 406 q 124 329 228 406 l 111 354 q 381 481 271 481 z "}," ":{"ha":278,"x_min":0,"x_max":0,"o":""},"¡":{"ha":482,"x_min":49,"x_max":426,"o":"m 282 529 l 317 515 q 163 -369 188 -11 l 49 -443 q 101 -83 82 -196 q 165 199 119 31 q 282 529 211 368 m 233 710 l 333 806 q 426 693 376 772 l 329 604 q 292 647 328 606 q 233 710 257 689 z "},"¢":{"ha":476,"x_min":21,"x_max":485,"o":"m 335 708 q 386 714 358 714 q 485 693 438 714 q 457 658 479 685 q 425 615 435 632 q 325 644 375 642 l 242 107 q 417 158 331 122 l 425 140 q 235 67 339 92 l 206 -119 l 153 -94 l 178 63 q 60 129 100 71 q 21 275 21 188 q 92 521 21 399 q 276 690 163 643 l 307 888 l 361 871 l 335 708 m 268 639 q 141 547 182 621 q 100 385 100 472 q 124 228 100 297 q 188 128 149 158 l 268 639 z "},"£":{"ha":733,"x_min":-69,"x_max":717,"o":"m 249 760 q 353 938 261 854 q 538 1022 444 1022 q 696 958 631 1022 l 621 906 q 468 972 532 972 q 339 797 364 972 l 307 572 l 543 572 l 486 528 q 297 501 404 506 l 278 368 q 228 196 261 251 q 117 75 196 140 q 457 29 304 29 q 585 58 546 29 q 624 139 624 86 q 600 224 624 192 l 690 268 q 717 193 717 242 q 603 31 717 114 q 388 -51 489 -51 q 212 -26 325 -51 q 40 -1 99 -1 q -61 -44 -18 -1 q -69 -33 -69 -42 q 21 60 -69 1 q 128 158 82 99 q 185 289 175 218 l 213 500 l 207 500 q 123 501 179 500 q 40 501 67 501 l 96 569 l 222 569 l 249 760 z "},"¤":{"ha":1144,"x_min":257,"x_max":936,"o":"m 936 688 l 832 585 q 894 406 894 503 q 853 257 894 342 q 832 225 838 228 q 936 124 890 171 q 882 68 900 88 l 778 172 q 597 108 703 108 q 415 172 490 108 l 311 68 q 257 124 293 88 q 361 225 326 193 q 299 411 299 311 q 361 585 299 511 l 257 688 q 311 743 282 708 l 415 639 q 601 701 499 701 q 778 639 703 701 q 837 699 803 665 q 882 743 871 732 l 936 688 m 597 186 q 642 186 597 186 q 752 251 688 186 q 817 408 817 317 q 750 562 817 500 q 594 624 683 624 q 440 559 504 624 q 376 406 376 494 q 441 251 376 317 q 597 186 506 186 z "},"¥":{"ha":815,"x_min":-21,"x_max":947,"o":"m 306 1051 q 403 931 360 1051 q 454 654 447 810 l 465 654 q 637 924 535 826 q 865 1022 739 1022 q 947 1004 910 1022 l 874 946 q 786 972 821 972 q 664 901 726 972 q 561 740 601 829 q 504 571 521 650 l 714 571 l 671 521 q 494 503 576 507 l 471 385 l 693 385 l 664 342 q 460 313 544 313 q 419 187 444 232 q 339 90 394 142 l 343 79 l 428 79 q 607 131 529 79 l 613 119 q 575 90 596 107 q 542 63 554 72 q 514 41 529 53 q 490 22 499 29 q 472 10 481 15 q 444 -1 453 -1 q 183 0 275 -1 l 178 11 q 294 102 256 28 q 360 315 332 176 q 268 316 328 315 q 189 317 208 317 l 247 386 l 369 386 l 392 500 q 292 501 350 500 q 208 501 233 501 l 267 569 l 396 569 q 344 876 394 754 q 240 999 294 999 q 124 928 164 999 q 78 706 83 857 l -21 631 q 126 989 -11 876 q 306 1051 201 1051 z "},"¦":{"ha":344,"x_min":125,"x_max":206,"o":"m 128 328 l 192 328 l 186 -165 l 128 -226 l 128 328 m 206 1189 l 194 656 l 129 656 l 125 1131 l 206 1189 z "},"§":{"ha":750,"x_min":-8,"x_max":733,"o":"m 260 760 q 372 953 260 861 q 591 1046 483 1046 q 733 992 699 1046 l 639 936 q 519 975 590 975 q 407 933 449 975 q 365 839 365 892 q 390 742 365 786 q 452 661 415 699 q 525 583 489 624 q 611 388 611 490 q 566 251 611 331 q 467 146 521 171 q 469 111 469 124 q 358 -86 469 13 q 142 -185 246 -185 q 55 -172 99 -185 q -8 -131 11 -158 q 92 -74 79 -79 q 216 -115 149 -115 q 322 -72 283 -115 q 361 29 361 -28 q 322 144 361 86 q 238 244 283 201 q 153 349 192 288 q 114 472 114 411 q 158 613 114 532 q 264 721 203 693 q 260 760 260 739 m 275 685 q 224 536 224 604 q 250 416 224 468 q 309 331 276 364 q 385 254 342 299 q 451 176 429 210 q 503 322 503 263 q 487 423 503 382 q 444 496 471 464 q 388 556 417 528 q 275 685 304 635 z "},"¨":{"ha":692,"x_min":192,"x_max":594,"o":"m 192 1011 l 267 1081 q 333 1008 313 1044 l 263 932 q 192 1011 211 994 m 454 1011 l 529 1081 q 594 1008 568 1056 l 532 932 q 454 1011 490 985 z "},"©":{"ha":1174,"x_min":167,"x_max":1063,"o":"m 665 925 q 953 804 844 925 q 1063 525 1063 683 q 926 146 1063 290 q 557 1 790 1 q 278 125 390 1 q 167 400 167 249 q 296 778 167 632 q 665 925 425 925 m 858 779 q 615 861 761 861 q 365 779 468 861 q 240 581 261 697 q 231 469 231 528 q 367 147 231 264 q 594 65 463 65 q 860 147 756 65 q 986 347 965 229 q 996 457 996 399 q 858 779 996 664 m 649 732 q 746 717 699 732 q 807 682 793 701 l 807 594 l 785 594 q 747 662 781 631 q 637 693 714 693 q 510 631 560 693 q 460 473 460 569 q 510 306 460 376 q 654 236 561 236 q 806 329 747 236 l 826 329 l 807 240 q 739 211 793 225 q 642 197 685 197 q 441 266 519 197 q 363 475 363 335 q 438 651 363 569 q 649 732 514 732 z "},"ª":{"ha":421,"x_min":61,"x_max":385,"o":"m 258 553 q 296 803 282 776 l 292 806 l 282 790 q 74 540 175 624 q 61 655 61 581 q 86 814 61 729 q 159 944 111 899 q 284 989 207 989 q 385 985 361 989 l 357 839 q 299 596 326 676 l 301 590 q 368 649 351 633 l 375 638 q 264 542 304 564 l 258 553 m 296 924 q 237 929 283 929 q 171 906 190 929 q 125 717 136 863 q 122 668 122 689 q 125 635 122 647 q 224 769 168 674 q 296 924 281 864 z "},"«":{"ha":999,"x_min":108,"x_max":819,"o":"m 401 671 l 460 603 q 346 492 422 558 q 206 386 269 425 q 342 291 268 350 q 454 192 415 232 l 401 111 q 282 246 358 171 q 108 386 206 321 q 401 671 299 519 m 761 671 l 819 603 q 706 492 782 558 q 565 386 629 425 q 701 291 628 350 q 814 192 775 232 l 761 111 q 642 246 718 171 q 468 386 565 321 q 761 671 658 519 z "},"¬":{"ha":828,"x_min":86,"x_max":736,"o":"m 688 435 q 722 419 708 435 q 736 379 736 404 l 736 115 l 678 76 l 676 326 q 669 372 676 364 q 632 379 661 379 l 86 379 l 118 435 l 688 435 z "},"®":{"ha":1069,"x_min":90,"x_max":986,"o":"m 569 733 q 693 698 642 733 q 744 582 744 663 q 613 438 744 461 l 606 428 q 644 373 625 403 q 681 319 664 343 q 708 285 699 296 q 733 257 708 285 q 788 207 758 226 l 763 171 q 492 456 631 256 l 497 461 q 524 457 510 457 q 626 497 593 457 q 660 589 660 536 q 550 690 660 690 q 463 678 507 690 l 463 236 q 499 226 474 232 l 499 204 l 326 204 l 326 226 q 372 238 346 229 l 372 686 q 326 699 351 694 l 326 721 l 385 721 q 488 727 428 721 q 569 733 549 733 m 589 925 q 877 804 768 925 q 986 525 986 683 q 850 146 986 290 q 481 1 714 1 q 202 125 314 1 q 90 400 90 249 q 219 778 90 632 q 589 925 349 925 m 551 861 q 254 747 357 861 q 151 472 151 633 q 193 277 151 368 q 320 126 235 186 q 513 65 406 65 q 699 98 619 65 q 825 186 778 131 q 922 454 922 299 q 881 649 922 557 q 752 801 839 740 q 551 861 665 861 z "},"¯":{"ha":489,"x_min":79,"x_max":439,"o":"m 143 1201 q 253 1216 201 1215 q 349 1217 306 1217 q 439 1213 392 1217 l 365 1138 q 225 1140 306 1140 q 79 1129 144 1140 l 143 1201 z "},"°":{"ha":508,"x_min":49,"x_max":456,"o":"m 49 841 q 49 889 49 841 q 112 999 49 936 q 260 1063 175 1063 q 400 1010 344 1063 q 456 861 456 957 q 391 703 456 765 q 242 640 326 640 q 103 693 157 640 q 49 841 49 746 m 400 847 q 400 887 400 847 q 359 975 400 926 q 252 1024 318 1024 q 144 979 186 1024 q 103 853 103 935 q 147 724 103 772 q 255 675 190 675 q 360 722 319 675 q 400 847 400 768 z "},"±":{"ha":863,"x_min":67,"x_max":810,"o":"m 472 599 l 810 599 l 735 524 l 472 524 l 472 260 l 397 185 l 397 524 l 67 524 l 142 599 l 397 599 l 397 853 l 472 928 l 472 599 m 67 -3 l 142 72 l 810 72 l 735 -3 l 67 -3 z "},"²":{"ha":492,"x_min":86,"x_max":479,"o":"m 311 1076 q 414 986 414 1076 q 346 826 414 910 q 188 675 278 743 l 190 667 l 353 667 q 471 707 418 667 l 479 694 l 383 618 l 90 619 l 86 626 q 265 795 188 706 q 343 956 343 885 q 275 1028 343 1028 q 144 992 235 1028 l 138 1010 q 311 1076 224 1076 z "},"³":{"ha":565,"x_min":99,"x_max":414,"o":"m 317 1086 q 407 992 407 1086 q 378 918 407 957 q 308 854 349 879 l 311 849 q 332 851 325 851 q 392 826 369 851 q 414 768 414 800 q 350 640 414 689 q 214 590 286 590 q 99 621 142 590 l 125 676 q 243 642 179 642 q 329 665 307 642 q 351 730 351 688 q 329 799 351 772 q 267 832 307 826 l 258 847 q 351 969 351 896 q 293 1042 351 1042 q 193 1010 254 1042 l 179 1029 q 317 1086 275 1086 z "},"´":{"ha":569,"x_min":57,"x_max":357,"o":"m 346 1053 q 357 1053 351 1053 l 336 999 q 233 951 296 990 q 76 801 171 911 l 57 825 q 156 956 119 913 q 346 1053 239 1053 z "},"µ":{"ha":644,"x_min":56,"x_max":726,"o":"m 276 715 q 176 86 211 381 l 189 75 q 353 282 271 151 q 497 575 435 413 q 508 601 499 578 q 521 631 518 625 q 533 656 524 638 q 550 682 543 674 q 594 714 574 707 q 585 665 592 693 q 555 489 579 636 q 496 150 531 342 q 469 60 486 101 l 474 57 q 721 315 625 196 l 726 310 q 574 122 669 226 q 411 -12 478 18 q 471 435 421 157 l 467 438 q 168 7 324 146 q 144 -153 160 -40 q 119 -328 129 -265 l 56 -326 q 115 130 75 -179 q 179 624 154 439 l 89 558 l 92 574 q 119 609 101 588 q 185 669 136 631 q 276 715 233 708 z "},"¶":{"ha":774,"x_min":67,"x_max":900,"o":"m 492 840 q 338 738 386 840 q 290 469 290 636 q 329 314 290 378 q 429 250 368 250 q 449 258 442 250 q 522 764 522 638 q 492 840 522 840 m 832 1182 q 900 1175 872 1182 l 843 1100 q 761 1108 804 1108 q 689 1087 718 1108 q 643 1036 660 1065 q 613 959 626 1007 q 595 878 600 911 q 583 794 590 844 q 566 679 576 743 q 528 420 556 615 q 483 106 501 225 q 369 -201 451 -104 q 153 -297 286 -297 q 92 -289 122 -297 l 144 -212 q 233 -224 186 -224 q 324 -172 281 -224 q 382 -8 367 -121 l 413 211 q 342 204 371 204 q 148 283 229 204 q 67 513 67 361 q 178 772 67 664 q 436 881 289 881 q 514 872 475 881 q 618 1083 526 985 q 832 1182 710 1182 z "},"·":{"ha":476,"x_min":131,"x_max":358,"o":"m 247 542 q 308 487 274 524 q 358 425 343 450 l 233 301 q 208 331 226 308 q 131 414 161 386 l 247 542 z "},"¸":{"ha":543,"x_min":131,"x_max":404,"o":"m 404 -181 q 352 -271 404 -231 q 230 -311 300 -311 q 131 -256 160 -311 l 193 -201 q 282 -256 222 -256 q 342 -235 342 -256 q 297 -162 342 -199 q 189 -103 253 -125 l 346 29 l 369 8 q 279 -69 353 -7 q 363 -116 321 -81 q 404 -181 404 -151 z "},"¹":{"ha":428,"x_min":96,"x_max":296,"o":"m 285 1071 q 296 1031 296 1067 q 288 934 296 996 q 263 774 279 872 q 240 640 246 675 l 169 564 l 167 569 q 232 1000 217 885 q 106 922 156 960 l 96 938 q 185 1011 129 972 q 285 1071 242 1050 z "},"º":{"ha":460,"x_min":54,"x_max":364,"o":"m 364 833 q 294 657 364 744 q 132 547 224 569 q 75 610 96 561 q 54 708 54 660 q 124 885 54 800 q 285 994 193 971 q 342 929 319 981 q 364 833 364 878 m 131 751 q 167 603 131 661 q 292 788 292 650 q 253 936 292 879 q 131 751 131 883 z "},"»":{"ha":929,"x_min":121,"x_max":832,"o":"m 481 603 l 539 671 q 832 386 640 522 q 658 246 735 321 q 539 111 582 171 l 486 192 q 599 290 525 231 q 738 385 672 349 l 736 385 q 595 491 672 424 q 481 603 518 558 m 121 603 l 179 671 q 472 386 281 522 q 299 246 375 321 q 179 111 222 171 l 126 192 q 239 290 165 231 q 378 385 313 349 l 376 385 q 235 491 313 424 q 121 603 158 558 z "},"¼":{"ha":1429,"x_min":143,"x_max":1219,"o":"m 944 1100 l 1013 1031 q 641 523 904 851 q 169 -28 378 194 l 143 1 q 364 285 164 29 q 694 722 564 540 q 944 1100 824 904 m 469 1058 q 429 783 469 981 q 386 567 389 586 l 315 490 q 308 508 308 493 l 308 514 q 347 755 317 599 q 389 1017 378 911 q 272 946 339 996 l 263 961 q 451 1094 318 1019 q 469 1058 469 1094 m 989 589 l 986 589 q 763 250 907 401 l 767 244 l 954 244 q 989 589 975 415 m 818 189 q 668 178 746 189 l 642 192 q 792 365 685 215 q 932 607 899 514 q 1054 679 975 650 q 1071 650 1071 679 q 1047 435 1065 557 q 1021 244 1028 313 q 1207 274 1135 244 l 1219 244 q 1017 188 1136 188 q 1008 117 1013 163 q 997 43 1003 72 l 931 -19 q 926 -4 926 -18 q 949 188 926 10 l 818 189 z "},"½":{"ha":1461,"x_min":207,"x_max":1247,"o":"m 1008 1100 l 1076 1031 q 705 523 968 851 q 233 -28 442 194 l 207 1 q 428 285 228 29 q 758 722 628 540 q 1008 1100 888 904 m 533 1058 q 493 783 533 981 q 450 567 453 586 l 379 490 q 372 508 372 493 l 372 514 q 411 755 381 599 q 453 1017 442 911 q 336 946 403 996 l 326 961 q 515 1094 382 1019 q 533 1058 533 1094 m 1092 618 q 1194 528 1194 618 q 1122 353 1194 443 q 954 189 1050 263 l 957 181 l 1089 181 q 1238 221 1182 181 l 1247 200 l 1150 133 l 857 133 l 851 157 q 1114 494 1114 371 q 1050 568 1114 568 q 925 533 1015 568 l 918 551 q 1092 618 1004 618 z "},"¾":{"ha":1417,"x_min":143,"x_max":1219,"o":"m 944 1100 l 1013 1031 q 641 523 904 851 q 169 -28 378 194 l 143 1 q 364 285 164 29 q 694 722 564 540 q 944 1100 824 904 m 989 589 l 986 589 q 763 250 907 401 l 767 244 l 954 244 q 989 589 975 415 m 949 188 l 842 189 q 668 178 756 189 l 642 192 q 792 365 685 215 q 932 607 899 514 q 1054 679 975 650 q 1071 650 1071 679 q 1047 435 1065 557 q 1021 244 1028 313 q 1207 274 1135 244 l 1219 244 q 1017 188 1136 188 q 1008 117 1013 163 q 997 43 1003 72 l 931 -19 q 926 -4 926 -18 q 949 188 926 10 m 403 1086 q 504 988 504 1086 q 472 910 504 951 q 393 843 439 869 l 396 838 q 419 840 413 840 q 487 813 463 840 q 511 754 511 786 q 437 615 511 676 q 286 553 363 553 q 218 566 256 553 q 158 600 181 579 l 188 658 q 319 622 247 622 q 417 646 392 622 q 442 713 442 669 q 417 786 442 757 q 347 821 392 815 l 338 850 q 429 966 429 893 q 371 1039 429 1039 q 264 1007 333 1039 l 247 1036 q 403 1086 344 1086 z "},"¿":{"ha":569,"x_min":-28,"x_max":454,"o":"m 431 538 q 454 410 454 476 q 415 283 454 344 q 318 172 375 221 q 204 74 261 124 q 108 -40 147 25 q 68 -174 68 -106 q 96 -284 68 -243 q 171 -325 124 -325 q 328 -264 256 -325 l 332 -285 q 138 -385 232 -385 q -28 -215 -28 -385 q 11 -85 -28 -151 q 106 36 50 -18 q 219 142 163 90 q 353 342 353 264 q 329 458 353 419 q 425 539 406 506 l 431 538 m 235 686 l 335 782 q 428 669 378 749 l 331 581 q 294 624 329 582 q 235 686 258 665 z "},"À":{"ha":935,"x_min":-132,"x_max":929,"o":"m 633 967 l 486 971 q 300 942 351 971 q 252 904 278 929 q 213 843 226 879 q 179 628 179 757 q 83 553 136 599 q 260 965 83 821 q 544 1049 363 1049 q 774 1036 549 1049 q 733 589 733 956 q 747 194 733 272 q 774 96 760 115 q 824 76 789 76 q 924 115 858 76 l 929 104 q 767 -15 854 38 q 681 32 704 -15 q 658 85 667 60 q 644 165 650 110 q 636 382 639 240 l 383 382 q 353 319 374 364 q 285 200 308 232 q -46 -11 131 -11 l -132 -11 l -67 78 q 41 65 -17 65 q 131 92 99 65 q 211 197 164 118 q 413 569 258 276 q 633 967 567 863 m 635 450 q 633 586 633 501 q 635 758 633 671 q 636 849 636 844 q 523 635 594 774 q 426 450 451 496 l 635 450 m 472 1335 q 661 1238 579 1335 q 761 1107 699 1194 l 740 1082 q 569 1243 636 1203 q 515 1269 546 1257 q 482 1281 485 1281 l 461 1335 q 472 1335 467 1335 z "},"Á":{"ha":951,"x_min":-132,"x_max":929,"o":"m 633 967 l 486 971 q 300 942 351 971 q 252 904 278 929 q 213 843 226 879 q 179 628 179 757 q 83 553 136 599 q 260 965 83 821 q 544 1049 363 1049 q 774 1036 549 1049 q 733 589 733 956 q 747 194 733 272 q 774 96 760 115 q 824 76 789 76 q 924 115 858 76 l 929 104 q 767 -15 854 38 q 681 32 704 -15 q 658 85 667 60 q 644 165 650 110 q 636 382 639 240 l 383 382 q 353 319 374 364 q 285 200 308 232 q -46 -11 131 -11 l -132 -11 l -67 78 q 41 65 -17 65 q 131 92 99 65 q 211 197 164 118 q 413 569 258 276 q 633 967 567 863 m 635 450 q 633 586 633 501 q 635 758 633 671 q 636 849 636 844 q 523 635 594 774 q 426 450 451 496 l 635 450 m 840 1331 q 851 1331 846 1331 l 831 1276 q 728 1228 790 1268 q 571 1079 665 1189 l 551 1103 q 650 1233 614 1190 q 840 1331 733 1331 z "},"Â":{"ha":935,"x_min":-132,"x_max":929,"o":"m 633 967 l 486 971 q 300 942 351 971 q 252 904 278 929 q 213 843 226 879 q 179 628 179 757 q 83 553 136 599 q 260 965 83 821 q 544 1049 363 1049 q 774 1036 549 1049 q 733 589 733 956 q 747 194 733 272 q 774 96 760 115 q 824 76 789 76 q 924 115 858 76 l 929 104 q 767 -15 854 38 q 681 32 704 -15 q 658 85 667 60 q 644 165 650 110 q 636 382 639 240 l 383 382 q 353 319 374 364 q 285 200 308 232 q -46 -11 131 -11 l -132 -11 l -67 78 q 41 65 -17 65 q 131 92 99 65 q 211 197 164 118 q 413 569 258 276 q 633 967 567 863 m 635 450 q 633 586 633 501 q 635 758 633 671 q 636 849 636 844 q 523 635 594 774 q 426 450 451 496 l 635 450 m 744 1267 q 828 1217 776 1254 q 906 1153 881 1179 l 857 1107 q 706 1213 768 1193 q 558 1110 642 1181 l 544 1122 q 645 1219 600 1183 q 744 1267 690 1254 z "},"Ã":{"ha":944,"x_min":-132,"x_max":929,"o":"m 633 967 l 486 971 q 300 942 351 971 q 252 904 278 929 q 213 843 226 879 q 179 628 179 757 q 83 553 136 599 q 260 965 83 821 q 544 1049 363 1049 q 774 1036 549 1049 q 733 589 733 956 q 747 194 733 272 q 774 96 760 115 q 824 76 789 76 q 924 115 858 76 l 929 104 q 767 -15 854 38 q 681 32 704 -15 q 658 85 667 60 q 644 165 650 110 q 636 382 639 240 l 383 382 q 353 319 374 364 q 285 200 308 232 q -46 -11 131 -11 l -132 -11 l -67 78 q 41 65 -17 65 q 131 92 99 65 q 211 197 164 118 q 413 569 258 276 q 633 967 567 863 m 635 450 q 633 586 633 501 q 635 758 633 671 q 636 849 636 844 q 523 635 594 774 q 426 450 451 496 l 635 450 m 764 1149 q 680 1174 733 1149 q 596 1200 626 1200 q 523 1181 565 1200 q 457 1142 481 1163 l 450 1163 q 610 1268 518 1232 q 694 1244 640 1268 q 778 1219 747 1219 q 853 1234 810 1219 q 918 1264 897 1249 l 929 1249 q 764 1149 851 1169 z "},"Ä":{"ha":935,"x_min":-132,"x_max":929,"o":"m 633 967 l 486 971 q 300 942 351 971 q 252 904 278 929 q 213 843 226 879 q 179 628 179 757 q 83 553 136 599 q 260 965 83 821 q 544 1049 363 1049 q 774 1036 549 1049 q 733 589 733 956 q 747 194 733 272 q 774 96 760 115 q 824 76 789 76 q 924 115 858 76 l 929 104 q 767 -15 854 38 q 681 32 704 -15 q 658 85 667 60 q 644 165 650 110 q 636 382 639 240 l 383 382 q 353 319 374 364 q 285 200 308 232 q -46 -11 131 -11 l -132 -11 l -67 78 q 41 65 -17 65 q 131 92 99 65 q 211 197 164 118 q 413 569 258 276 q 633 967 567 863 m 635 450 q 633 586 633 501 q 635 758 633 671 q 636 849 636 844 q 523 635 594 774 q 426 450 451 496 l 635 450 m 500 1196 l 575 1265 q 642 1193 621 1229 l 571 1117 q 500 1196 519 1179 m 763 1196 l 838 1265 q 903 1193 876 1240 l 840 1117 q 763 1196 799 1169 z "},"Å":{"ha":935,"x_min":-132,"x_max":929,"o":"m 633 967 l 486 971 q 300 942 351 971 q 252 904 278 929 q 213 843 226 879 q 179 628 179 757 q 83 553 136 599 q 260 965 83 821 q 544 1049 363 1049 q 774 1036 549 1049 q 733 589 733 956 q 747 194 733 272 q 774 96 760 115 q 824 76 789 76 q 924 115 858 76 l 929 104 q 767 -15 854 38 q 681 32 704 -15 q 658 85 667 60 q 644 165 650 110 q 636 382 639 240 l 383 382 q 353 319 374 364 q 285 200 308 232 q -46 -11 131 -11 l -132 -11 l -67 78 q 41 65 -17 65 q 131 92 99 65 q 211 197 164 118 q 413 569 258 276 q 633 967 567 863 m 635 450 q 633 586 633 501 q 635 758 633 671 q 636 849 636 844 q 523 635 594 774 q 426 450 451 496 l 635 450 m 733 1314 q 813 1292 786 1314 q 840 1231 840 1269 q 810 1154 840 1192 q 738 1117 779 1117 q 670 1139 696 1117 q 644 1197 644 1161 q 670 1265 644 1232 q 733 1314 696 1297 m 761 1161 q 810 1208 810 1176 q 785 1258 810 1240 q 726 1276 761 1276 q 682 1213 690 1257 q 707 1178 682 1196 q 761 1161 732 1161 z "},"Æ":{"ha":1206,"x_min":-133,"x_max":1214,"o":"m 924 529 l 738 532 q 692 267 711 361 q 586 90 672 174 l 592 78 l 953 78 q 1124 131 1049 78 l 1129 119 q 967 -1 1017 33 l 435 -1 l 429 11 q 589 246 550 36 q 613 382 600 307 l 382 382 q 283 200 307 238 q 134 39 214 89 q -47 -11 54 -11 l -133 -11 l -68 78 q 38 65 -18 65 q 128 94 94 65 q 213 203 163 124 q 421 573 263 282 q 646 967 579 864 l 499 971 q 313 942 364 971 q 265 904 290 929 q 225 843 239 879 q 192 628 192 757 q 96 553 149 599 q 272 965 96 821 q 415 1030 332 1014 q 663 1046 499 1046 l 1003 1043 q 1214 1044 1168 1043 l 1136 963 l 814 964 q 800 917 804 938 l 753 618 l 772 618 l 936 613 q 1071 626 1008 613 l 1078 621 q 1012 557 1053 585 q 924 529 971 529 m 731 964 q 615 804 674 910 q 533 657 556 699 q 428 450 436 474 l 624 450 q 648 604 633 511 q 669 738 663 697 q 686 831 676 778 q 731 964 706 924 z "},"Ç":{"ha":732,"x_min":49,"x_max":760,"o":"m 571 1043 q 760 1015 667 1043 l 679 911 q 522 983 603 965 q 339 899 428 982 q 197 685 250 815 q 143 427 143 554 q 198 201 143 300 q 356 76 253 101 q 600 206 450 93 l 613 194 q 484 72 564 133 q 336 -8 404 11 q 267 -69 285 -54 q 350 -116 308 -81 q 392 -181 392 -151 q 340 -271 392 -231 q 217 -311 288 -311 q 118 -256 147 -311 l 181 -201 q 269 -256 210 -256 q 329 -235 329 -256 q 285 -162 329 -199 q 176 -103 240 -125 l 289 -8 q 109 100 169 7 q 49 314 49 193 q 122 643 49 474 q 318 928 194 813 q 571 1043 442 1043 z "},"È":{"ha":867,"x_min":-12,"x_max":875,"o":"m 585 529 l 399 532 q 353 267 372 361 q 247 90 333 174 l 253 79 l 582 76 q 606 75 593 75 q 785 131 706 75 l 790 119 q 628 -1 678 33 l 96 0 l 90 11 q 250 246 211 36 q 297 520 275 376 q 331 735 319 664 q 392 964 358 908 l 335 964 q 140 888 196 964 q 83 628 83 813 l -12 553 q 44 824 -12 711 q 239 1015 101 936 q 446 1043 288 1043 l 664 1043 q 875 1044 829 1043 l 797 963 l 475 964 q 461 917 465 938 l 414 618 l 433 618 l 597 613 q 732 626 669 613 l 739 621 q 673 557 714 585 q 585 529 632 529 m 315 1340 q 506 1243 422 1340 q 604 1113 542 1200 l 583 1088 q 413 1249 479 1208 q 358 1274 389 1263 q 325 1286 328 1286 l 304 1340 q 315 1340 310 1340 z "},"É":{"ha":867,"x_min":-12,"x_max":875,"o":"m 585 529 l 399 532 q 353 267 372 361 q 247 90 333 174 l 253 79 l 582 76 q 606 75 593 75 q 785 131 706 75 l 790 119 q 628 -1 678 33 l 96 0 l 90 11 q 250 246 211 36 q 297 520 275 376 q 331 735 319 664 q 392 964 358 908 l 335 964 q 140 888 196 964 q 83 628 83 813 l -12 553 q 44 824 -12 711 q 239 1015 101 936 q 446 1043 288 1043 l 664 1043 q 875 1044 829 1043 l 797 963 l 475 964 q 461 917 465 938 l 414 618 l 433 618 l 597 613 q 732 626 669 613 l 739 621 q 673 557 714 585 q 585 529 632 529 m 736 1333 q 747 1333 742 1333 l 726 1279 q 624 1231 686 1271 q 467 1082 561 1192 l 447 1106 q 547 1236 510 1193 q 736 1333 629 1333 z "},"Ê":{"ha":867,"x_min":-12,"x_max":875,"o":"m 585 529 l 399 532 q 353 267 372 361 q 247 90 333 174 l 253 79 l 582 76 q 606 75 593 75 q 785 131 706 75 l 790 119 q 628 -1 678 33 l 96 0 l 90 11 q 250 246 211 36 q 297 520 275 376 q 331 735 319 664 q 392 964 358 908 l 335 964 q 140 888 196 964 q 83 628 83 813 l -12 553 q 44 824 -12 711 q 239 1015 101 936 q 446 1043 288 1043 l 664 1043 q 875 1044 829 1043 l 797 963 l 475 964 q 461 917 465 938 l 414 618 l 433 618 l 597 613 q 732 626 669 613 l 739 621 q 673 557 714 585 q 585 529 632 529 m 568 1258 q 652 1208 600 1246 q 729 1144 704 1171 l 681 1099 q 529 1204 592 1185 q 382 1101 465 1172 l 368 1114 q 469 1210 424 1175 q 568 1258 514 1246 z "},"Ë":{"ha":867,"x_min":-12,"x_max":875,"o":"m 585 529 l 399 532 q 353 267 372 361 q 247 90 333 174 l 253 79 l 582 76 q 606 75 593 75 q 785 131 706 75 l 790 119 q 628 -1 678 33 l 96 0 l 90 11 q 250 246 211 36 q 297 520 275 376 q 331 735 319 664 q 392 964 358 908 l 335 964 q 140 888 196 964 q 83 628 83 813 l -12 553 q 44 824 -12 711 q 239 1015 101 936 q 446 1043 288 1043 l 664 1043 q 875 1044 829 1043 l 797 963 l 475 964 q 461 917 465 938 l 414 618 l 433 618 l 597 613 q 732 626 669 613 l 739 621 q 673 557 714 585 q 585 529 632 529 m 261 1200 l 336 1269 q 403 1197 382 1233 l 332 1121 q 261 1200 281 1183 m 524 1200 l 599 1269 q 664 1197 638 1244 l 601 1121 q 524 1200 560 1174 z "},"Ì":{"ha":611,"x_min":-7,"x_max":592,"o":"m 429 -1 l 139 0 l 133 11 q 293 246 254 36 q 357 623 326 429 q 402 876 388 817 q 433 964 417 936 l 340 964 q 145 888 201 964 q 89 628 89 813 l -7 553 q 50 824 -7 711 q 244 1015 107 936 q 446 1043 293 1043 l 571 1043 l 572 1039 q 504 917 519 1006 q 475 731 494 860 q 396 258 442 519 q 290 90 376 172 l 296 79 q 376 78 329 78 q 477 85 422 78 q 586 131 532 93 l 592 119 q 429 -1 450 0 m 279 1332 q 469 1235 386 1332 q 568 1104 506 1192 l 547 1079 q 376 1240 443 1200 q 322 1266 353 1254 q 289 1278 292 1278 l 268 1332 q 279 1332 274 1332 z "},"Í":{"ha":638,"x_min":-7,"x_max":717,"o":"m 429 -1 l 139 0 l 133 11 q 293 246 254 36 q 357 623 326 429 q 402 876 388 817 q 433 964 417 936 l 340 964 q 145 888 201 964 q 89 628 89 813 l -7 553 q 50 824 -7 711 q 244 1015 107 936 q 446 1043 293 1043 l 571 1043 l 572 1039 q 504 917 519 1006 q 475 731 494 860 q 396 258 442 519 q 290 90 376 172 l 296 79 q 376 78 329 78 q 477 85 422 78 q 586 131 532 93 l 592 119 q 429 -1 450 0 m 706 1332 q 717 1332 711 1332 l 696 1278 q 593 1230 656 1269 q 436 1081 531 1190 l 417 1104 q 517 1235 479 1192 q 706 1332 599 1332 z "},"Î":{"ha":610,"x_min":-7,"x_max":689,"o":"m 429 -1 l 139 0 l 133 11 q 293 246 254 36 q 357 623 326 429 q 402 876 388 817 q 433 964 417 936 l 340 964 q 145 888 201 964 q 89 628 89 813 l -7 553 q 50 824 -7 711 q 244 1015 107 936 q 446 1043 293 1043 l 571 1043 l 572 1039 q 504 917 519 1006 q 475 731 494 860 q 396 258 442 519 q 290 90 376 172 l 296 79 q 376 78 329 78 q 477 85 422 78 q 586 131 532 93 l 592 119 q 429 -1 450 0 m 528 1271 q 612 1221 560 1258 q 689 1157 664 1183 l 640 1111 q 489 1217 551 1197 q 342 1114 425 1185 l 328 1126 q 428 1223 383 1188 q 528 1271 474 1258 z "},"Ï":{"ha":611,"x_min":-7,"x_max":690,"o":"m 429 -1 l 139 0 l 133 11 q 293 246 254 36 q 357 623 326 429 q 402 876 388 817 q 433 964 417 936 l 340 964 q 145 888 201 964 q 89 628 89 813 l -7 553 q 50 824 -7 711 q 244 1015 107 936 q 446 1043 293 1043 l 571 1043 l 572 1039 q 504 917 519 1006 q 475 731 494 860 q 396 258 442 519 q 290 90 376 172 l 296 79 q 376 78 329 78 q 477 85 422 78 q 586 131 532 93 l 592 119 q 429 -1 450 0 m 288 1196 l 363 1265 q 429 1193 408 1229 l 358 1117 q 288 1196 307 1179 m 550 1196 l 625 1265 q 690 1193 664 1240 l 628 1117 q 550 1196 586 1169 z "},"Ð":{"ha":1000,"x_min":15,"x_max":943,"o":"m 246 582 q 332 581 299 582 q 365 781 356 724 q 429 975 390 922 q 215 892 315 975 q 136 778 167 850 q 106 617 106 707 l 15 539 q 163 916 15 785 q 588 1047 310 1047 q 857 951 771 1047 q 943 699 943 854 q 899 461 943 585 q 778 235 854 338 q 591 67 703 133 q 358 0 479 0 l 122 0 l 117 11 q 276 246 238 36 q 318 494 303 397 q 178 496 265 496 l 222 582 l 246 582 m 457 79 q 658 162 567 79 q 799 367 750 244 q 849 615 849 489 q 769 869 849 768 q 663 950 731 921 q 508 979 596 979 q 486 910 492 944 q 432 578 481 876 q 561 576 488 576 q 697 590 635 576 l 704 585 q 638 521 679 549 q 539 493 597 493 q 418 494 481 493 q 379 258 415 468 q 274 90 365 178 l 279 79 l 457 79 z "},"Ñ":{"ha":1129,"x_min":-40,"x_max":1099,"o":"m 417 1042 l 547 1042 q 803 142 722 538 q 853 449 822 243 q 908 784 883 656 q 960 964 932 913 q 877 965 931 965 q 757 956 824 965 l 756 958 q 853 1026 799 1010 q 1022 1043 907 1043 l 1097 1043 l 1099 1039 q 1031 917 1046 1006 l 925 303 q 862 94 901 165 q 742 -14 822 22 l 736 -3 l 774 18 q 613 486 707 222 q 469 893 518 750 q 422 599 446 793 q 383 317 399 404 q 276 78 354 157 q 85 0 197 0 q 76 0 81 0 l 1 1 l 67 90 q 162 78 117 78 q 228 100 207 78 q 263 192 249 122 q 324 559 297 371 q 364 839 350 747 q 394 964 378 931 l 304 965 q 300 965 301 965 q 112 888 168 965 q 56 628 56 811 l -40 553 q 17 824 -40 711 q 211 1015 74 936 q 417 1042 257 1042 m 801 1150 q 717 1176 771 1150 q 633 1201 664 1201 q 560 1183 603 1201 q 494 1143 518 1164 l 488 1164 q 647 1269 556 1233 q 731 1245 678 1269 q 816 1221 785 1221 q 891 1235 847 1221 q 956 1265 935 1250 l 967 1250 q 801 1150 889 1171 z "},"Ò":{"ha":815,"x_min":53,"x_max":760,"o":"m 551 1046 q 708 917 657 1015 q 760 677 760 818 q 697 391 760 536 q 523 137 635 246 q 279 -7 411 28 q 110 113 167 22 q 53 329 53 203 q 199 776 53 560 q 551 1046 346 992 m 665 596 q 619 826 665 726 q 479 968 574 926 q 242 759 338 925 q 147 413 147 593 q 198 200 147 292 q 351 71 249 108 q 576 267 486 111 q 665 596 665 424 m 406 1338 q 594 1240 513 1338 q 694 1110 632 1197 l 674 1085 q 503 1246 569 1206 q 449 1272 479 1260 q 415 1283 418 1283 l 394 1338 q 406 1338 400 1338 z "},"Ó":{"ha":846,"x_min":53,"x_max":760,"o":"m 551 1046 q 708 917 657 1015 q 760 677 760 818 q 697 391 760 536 q 523 137 635 246 q 279 -7 411 28 q 110 113 167 22 q 53 329 53 203 q 199 776 53 560 q 551 1046 346 992 m 665 596 q 619 826 665 726 q 479 968 574 926 q 242 759 338 925 q 147 413 147 593 q 198 200 147 292 q 351 71 249 108 q 576 267 486 111 q 665 596 665 424 m 703 1333 q 714 1333 708 1333 l 693 1279 q 590 1231 653 1271 q 433 1082 528 1192 l 414 1106 q 514 1236 476 1193 q 703 1333 596 1333 z "},"Ô":{"ha":815,"x_min":53,"x_max":760,"o":"m 551 1046 q 708 917 657 1015 q 760 677 760 818 q 697 391 760 536 q 523 137 635 246 q 279 -7 411 28 q 110 113 167 22 q 53 329 53 203 q 199 776 53 560 q 551 1046 346 992 m 665 596 q 619 826 665 726 q 479 968 574 926 q 242 759 338 925 q 147 413 147 593 q 198 200 147 292 q 351 71 249 108 q 576 267 486 111 q 665 596 665 424 m 597 1275 q 681 1225 629 1263 q 758 1161 733 1188 l 710 1115 q 558 1221 621 1201 q 411 1118 494 1189 l 397 1131 q 498 1227 453 1192 q 597 1275 543 1263 z "},"Õ":{"ha":804,"x_min":40,"x_max":806,"o":"m 539 1046 q 696 917 644 1015 q 747 677 747 818 q 685 391 747 536 q 510 137 622 246 q 267 -7 399 28 q 97 113 154 22 q 40 329 40 203 q 187 776 40 560 q 539 1046 333 992 m 653 596 q 607 826 653 726 q 467 968 561 926 q 230 759 325 925 q 135 413 135 593 q 185 200 135 292 q 339 71 236 108 q 563 267 474 111 q 653 596 653 424 m 640 1163 q 556 1188 610 1163 q 472 1214 503 1214 q 399 1195 442 1214 q 333 1156 357 1176 l 326 1176 q 486 1282 394 1246 q 570 1258 517 1282 q 655 1233 624 1233 q 730 1248 686 1233 q 794 1278 774 1263 l 806 1263 q 640 1163 728 1183 z "},"Ö":{"ha":774,"x_min":53,"x_max":771,"o":"m 551 1046 q 708 917 657 1015 q 760 677 760 818 q 697 391 760 536 q 523 137 635 246 q 279 -7 411 28 q 110 113 167 22 q 53 329 53 203 q 199 776 53 560 q 551 1046 346 992 m 665 596 q 619 826 665 726 q 479 968 574 926 q 242 759 338 925 q 147 413 147 593 q 198 200 147 292 q 351 71 249 108 q 576 267 486 111 q 665 596 665 424 m 368 1204 l 443 1274 q 510 1201 489 1238 l 439 1125 q 368 1204 388 1188 m 631 1204 l 706 1274 q 771 1201 744 1249 l 708 1125 q 631 1204 667 1178 z "},"×":{"ha":765,"x_min":63,"x_max":700,"o":"m 142 696 q 399 403 228 561 l 663 696 l 693 676 l 424 376 q 522 278 482 318 q 593 206 561 239 q 700 82 651 144 l 700 81 l 626 8 q 472 176 568 81 l 356 293 l 86 -4 l 63 21 l 332 319 q 68 624 160 479 l 142 696 z "},"Ø":{"ha":815,"x_min":53,"x_max":760,"o":"m 747 1094 l 678 961 q 760 679 760 861 q 697 391 760 536 q 523 137 635 246 q 279 -7 411 28 q 189 32 233 4 q 113 -115 161 -18 l 53 -33 q 125 89 103 50 q 53 329 53 179 q 199 776 53 560 q 551 1046 346 992 q 635 1004 601 1031 q 703 1135 679 1090 l 747 1094 m 351 71 q 576 267 486 111 q 665 581 665 424 q 613 838 665 738 q 244 139 353 344 q 351 71 288 93 m 147 413 q 194 207 147 296 q 576 894 393 554 q 479 968 535 942 q 242 759 338 925 q 147 413 147 593 z "},"Ù":{"ha":1115,"x_min":-12,"x_max":1099,"o":"m 444 1042 l 575 1042 l 576 1038 q 543 997 563 1028 q 513 925 524 965 q 413 260 413 381 q 524 90 413 90 q 623 140 571 90 q 715 258 675 189 q 824 515 801 410 l 913 964 q 950 1007 922 989 q 998 1031 978 1025 q 1053 1043 1018 1036 l 1054 1039 q 986 917 1001 1006 q 954 733 978 868 q 875 216 875 279 q 903 122 875 153 q 980 92 932 92 q 1093 131 1028 92 l 1099 119 q 936 0 1024 53 q 793 196 793 1 q 810 356 793 256 l 803 356 q 642 110 754 222 q 443 -1 529 -1 q 311 221 311 -1 q 324 373 311 294 q 350 553 336 451 l 372 708 q 408 896 393 850 q 436 965 422 942 l 325 965 q 138 887 193 965 q 83 628 83 808 l -12 553 q 44 824 -12 711 q 239 1015 101 936 q 444 1042 285 1042 m 551 1331 q 742 1233 658 1331 q 840 1103 778 1190 l 819 1078 q 649 1239 715 1199 q 594 1265 625 1253 q 561 1276 564 1276 l 540 1331 q 551 1331 546 1331 z "},"Ú":{"ha":1115,"x_min":-12,"x_max":1099,"o":"m 444 1042 l 575 1042 l 576 1038 q 543 997 563 1028 q 513 925 524 965 q 413 260 413 381 q 524 90 413 90 q 623 140 571 90 q 715 258 675 189 q 824 515 801 410 l 913 964 q 950 1007 922 989 q 998 1031 978 1025 q 1053 1043 1018 1036 l 1054 1039 q 986 917 1001 1006 q 954 733 978 868 q 875 216 875 279 q 903 122 875 153 q 980 92 932 92 q 1093 131 1028 92 l 1099 119 q 936 0 1024 53 q 793 196 793 1 q 810 356 793 256 l 803 356 q 642 110 754 222 q 443 -1 529 -1 q 311 221 311 -1 q 324 373 311 294 q 350 553 336 451 l 372 708 q 408 896 393 850 q 436 965 422 942 l 325 965 q 138 887 193 965 q 83 628 83 808 l -12 553 q 44 824 -12 711 q 239 1015 101 936 q 444 1042 285 1042 m 954 1335 q 965 1335 960 1335 l 944 1281 q 842 1233 904 1272 q 685 1083 779 1193 l 665 1107 q 764 1238 728 1194 q 954 1335 847 1335 z "},"Û":{"ha":1115,"x_min":-12,"x_max":1099,"o":"m 444 1042 l 575 1042 l 576 1038 q 543 997 563 1028 q 513 925 524 965 q 413 260 413 381 q 524 90 413 90 q 623 140 571 90 q 715 258 675 189 q 824 515 801 410 l 913 964 q 950 1007 922 989 q 998 1031 978 1025 q 1053 1043 1018 1036 l 1054 1039 q 986 917 1001 1006 q 954 733 978 868 q 875 216 875 279 q 903 122 875 153 q 980 92 932 92 q 1093 131 1028 92 l 1099 119 q 936 0 1024 53 q 793 196 793 1 q 810 356 793 256 l 803 356 q 642 110 754 222 q 443 -1 529 -1 q 311 221 311 -1 q 324 373 311 294 q 350 553 336 451 l 372 708 q 408 896 393 850 q 436 965 422 942 l 325 965 q 138 887 193 965 q 83 628 83 808 l -12 553 q 44 824 -12 711 q 239 1015 101 936 q 444 1042 285 1042 m 814 1286 q 898 1236 846 1274 q 975 1172 950 1199 l 926 1126 q 775 1232 838 1213 q 628 1129 711 1200 l 614 1142 q 715 1238 669 1203 q 814 1286 760 1274 z "},"Ü":{"ha":1115,"x_min":-12,"x_max":1099,"o":"m 444 1042 l 575 1042 l 576 1038 q 543 997 563 1028 q 513 925 524 965 q 413 260 413 381 q 524 90 413 90 q 623 140 571 90 q 715 258 675 189 q 824 515 801 410 l 913 964 q 950 1007 922 989 q 998 1031 978 1025 q 1053 1043 1018 1036 l 1054 1039 q 986 917 1001 1006 q 954 733 978 868 q 875 216 875 279 q 903 122 875 153 q 980 92 932 92 q 1093 131 1028 92 l 1099 119 q 936 0 1024 53 q 793 196 793 1 q 810 356 793 256 l 803 356 q 642 110 754 222 q 443 -1 529 -1 q 311 221 311 -1 q 324 373 311 294 q 350 553 336 451 l 372 708 q 408 896 393 850 q 436 965 422 942 l 325 965 q 138 887 193 965 q 83 628 83 808 l -12 553 q 44 824 -12 711 q 239 1015 101 936 q 444 1042 285 1042 m 560 1210 l 635 1279 q 701 1207 681 1243 l 631 1131 q 560 1210 579 1193 m 822 1210 l 897 1279 q 963 1207 936 1254 l 900 1131 q 822 1210 858 1183 z "},"Ý":{"ha":942,"x_min":-26,"x_max":1010,"o":"m 886 1335 q 897 1335 892 1335 l 876 1281 q 774 1233 836 1272 q 617 1083 711 1193 l 597 1107 q 697 1238 660 1194 q 886 1335 779 1335 m 314 1051 q 399 1002 360 1051 q 476 831 439 953 q 529 644 514 708 q 600 328 572 469 q 847 770 789 657 q 904 908 904 883 q 878 941 904 932 q 776 950 853 950 l 775 956 l 879 1018 l 933 1018 q 1010 963 1010 1018 q 799 528 1010 900 q 706 364 708 369 q 442 -71 538 49 q 206 -254 346 -190 q -26 -140 101 -240 l 54 -82 q 231 -165 144 -165 q 362 -83 297 -165 q 539 214 426 0 q 497 376 529 249 q 447 574 465 504 q 399 744 428 644 q 294 997 342 939 q 157 927 201 997 q 113 706 113 857 l 17 631 q 104 923 17 794 q 314 1051 192 1051 z "},"Þ":{"ha":869,"x_min":-12,"x_max":804,"o":"m 418 853 q 522 1051 439 972 q 705 1129 606 1129 q 804 1036 804 1129 q 708 847 804 928 q 481 732 613 767 q 435 439 446 497 l 439 438 q 578 618 499 540 q 733 719 658 696 q 767 632 758 679 q 776 492 776 585 q 740 287 776 400 q 633 88 704 174 q 478 1 561 1 q 389 40 429 1 q 379 1 386 31 q 49 -357 293 -357 q -12 -349 19 -357 l 40 -272 q 132 -283 82 -283 q 223 -241 182 -283 q 283 -76 264 -199 q 333 278 303 47 q 394 715 381 631 q 343 713 376 713 q 72 813 179 713 l 153 897 q 406 781 260 788 q 418 853 410 810 m 481 75 q 633 166 589 75 q 676 461 676 257 q 664 596 676 571 q 663 596 664 596 q 538 510 626 596 q 429 344 449 424 q 393 97 400 224 q 435 82 404 89 q 481 75 465 75 m 729 953 q 703 1031 729 1000 q 632 1063 678 1063 q 507 915 529 1063 q 488 786 499 864 q 655 843 581 800 q 729 953 729 886 z "},"ß":{"ha":647,"x_min":-294,"x_max":611,"o":"m 472 1143 q 611 997 611 1143 q 533 811 611 913 q 467 726 500 768 q 388 550 388 628 q 492 414 388 504 q 562 331 529 381 q 594 235 594 282 q 513 68 594 142 q 341 -6 432 -6 q 215 26 250 -6 l 286 100 q 419 47 353 47 q 494 94 463 47 q 525 181 525 140 q 490 268 525 221 q 413 352 454 315 q 335 437 371 389 q 300 524 300 485 q 323 604 300 563 q 378 685 346 646 q 444 765 411 724 q 524 971 524 864 q 444 1106 524 1106 q 296 1017 360 1106 q 211 810 232 929 q 158 427 190 692 q 101 19 125 163 q -17 -212 78 -125 q -214 -300 -112 -300 q -294 -281 -256 -300 l -239 -210 q -157 -217 -187 -217 q -37 -176 -69 -217 q 19 -5 -6 -136 q 74 394 43 126 q 134 810 106 663 q 253 1051 163 958 q 472 1143 343 1143 z "},"à":{"ha":567,"x_min":1,"x_max":668,"o":"m 350 694 q 485 688 450 694 l 476 647 q 442 456 464 583 q 358 75 407 222 l 363 72 q 654 397 483 160 l 668 388 q 467 128 568 242 q 297 -14 365 15 q 296 52 296 3 q 303 153 296 101 q 326 279 310 206 q 350 400 342 353 l 346 403 q 188 160 260 257 q 19 -21 115 64 q 1 161 1 42 q 38 414 1 281 q 147 621 75 547 q 350 694 219 694 m 299 624 q 154 581 188 624 q 104 401 121 538 q 88 192 88 265 q 96 93 88 118 q 140 140 110 93 q 172 188 171 186 q 305 403 225 253 q 385 615 385 554 q 299 624 356 624 m 156 1053 q 344 956 263 1053 q 444 825 382 913 l 424 800 q 253 961 319 921 q 199 987 229 975 q 165 999 168 999 l 144 1053 q 156 1053 150 1053 z "},"á":{"ha":569,"x_min":4,"x_max":671,"o":"m 353 694 q 488 688 453 694 l 479 647 q 444 456 467 583 q 361 75 410 222 l 365 72 q 657 397 486 160 l 671 388 q 469 128 571 242 q 300 -14 368 15 q 299 52 299 3 q 306 153 299 101 q 328 279 313 206 q 353 400 344 353 l 349 403 q 190 160 263 257 q 22 -21 118 64 q 4 161 4 42 q 41 414 4 281 q 150 621 78 547 q 353 694 222 694 m 301 624 q 157 581 190 624 q 107 401 124 538 q 90 192 90 265 q 99 93 90 118 q 143 140 113 93 q 175 188 174 186 q 308 403 228 253 q 388 615 388 554 q 301 624 358 624 m 588 1053 q 599 1053 593 1053 l 578 999 q 475 951 538 990 q 318 801 413 911 l 299 825 q 397 956 361 913 q 588 1053 481 1053 z "},"â":{"ha":569,"x_min":4,"x_max":671,"o":"m 353 694 q 488 688 453 694 l 479 647 q 444 456 467 583 q 361 75 410 222 l 365 72 q 657 397 486 160 l 671 388 q 469 128 571 242 q 300 -14 368 15 q 299 52 299 3 q 306 153 299 101 q 328 279 313 206 q 353 400 344 353 l 349 403 q 190 160 263 257 q 22 -21 118 64 q 4 161 4 42 q 41 414 4 281 q 150 621 78 547 q 353 694 222 694 m 301 624 q 157 581 190 624 q 107 401 124 538 q 90 192 90 265 q 99 93 90 118 q 143 140 113 93 q 175 188 174 186 q 308 403 228 253 q 388 615 388 554 q 301 624 358 624 m 378 1063 q 462 1013 410 1050 q 539 949 514 975 l 490 903 q 339 1008 401 989 q 192 906 275 976 l 178 918 q 278 1015 233 979 q 378 1063 324 1050 z "},"ã":{"ha":572,"x_min":4,"x_max":671,"o":"m 353 694 q 488 688 453 694 l 479 647 q 444 456 467 583 q 361 75 410 222 l 365 72 q 657 397 486 160 l 671 388 q 469 128 571 242 q 300 -14 368 15 q 299 52 299 3 q 306 153 299 101 q 328 279 313 206 q 353 400 344 353 l 349 403 q 190 160 263 257 q 22 -21 118 64 q 4 161 4 42 q 41 414 4 281 q 150 621 78 547 q 353 694 222 694 m 301 624 q 157 581 190 624 q 107 401 124 538 q 90 192 90 265 q 99 93 90 118 q 143 140 113 93 q 175 188 174 186 q 308 403 228 253 q 388 615 388 554 q 301 624 358 624 m 471 908 q 387 934 440 908 q 303 960 333 960 q 230 941 272 960 q 164 901 188 922 l 157 922 q 317 1028 225 992 q 401 1003 347 1028 q 485 979 454 979 q 560 994 517 979 q 625 1024 604 1008 l 636 1008 q 471 908 558 929 z "},"ä":{"ha":569,"x_min":4,"x_max":671,"o":"m 353 694 q 488 688 453 694 l 479 647 q 444 456 467 583 q 361 75 410 222 l 365 72 q 657 397 486 160 l 671 388 q 469 128 571 242 q 300 -14 368 15 q 299 52 299 3 q 306 153 299 101 q 328 279 313 206 q 353 400 344 353 l 349 403 q 190 160 263 257 q 22 -21 118 64 q 4 161 4 42 q 41 414 4 281 q 150 621 78 547 q 353 694 222 694 m 301 624 q 157 581 190 624 q 107 401 124 538 q 90 192 90 265 q 99 93 90 118 q 143 140 113 93 q 175 188 174 186 q 308 403 228 253 q 388 615 388 554 q 301 624 358 624 m 194 985 l 269 1054 q 336 982 315 1018 l 265 906 q 194 985 214 968 m 457 985 l 532 1054 q 597 982 571 1029 l 535 906 q 457 985 493 958 z "},"å":{"ha":569,"x_min":4,"x_max":671,"o":"m 353 694 q 488 688 453 694 l 479 647 q 444 456 467 583 q 361 75 410 222 l 365 72 q 657 397 486 160 l 671 388 q 469 128 571 242 q 300 -14 368 15 q 299 52 299 3 q 306 153 299 101 q 328 279 313 206 q 353 400 344 353 l 349 403 q 190 160 263 257 q 22 -21 118 64 q 4 161 4 42 q 41 414 4 281 q 150 621 78 547 q 353 694 222 694 m 301 624 q 157 581 190 624 q 107 401 124 538 q 90 192 90 265 q 99 93 90 118 q 143 140 113 93 q 175 188 174 186 q 308 403 228 253 q 388 615 388 554 q 301 624 358 624 m 386 1075 q 466 1053 439 1075 q 493 992 493 1031 q 463 915 493 953 q 390 878 432 878 q 323 900 349 878 q 297 958 297 922 q 323 1026 297 993 q 386 1075 349 1058 m 414 922 q 463 969 463 938 q 438 1019 463 1001 q 379 1038 414 1038 q 335 974 343 1018 q 360 940 335 957 q 414 922 385 922 z "},"æ":{"ha":732,"x_min":4,"x_max":838,"o":"m 22 -21 q 4 161 4 42 q 44 423 4 281 q 161 630 85 565 q 345 694 238 694 q 488 688 453 694 l 479 647 q 472 617 478 639 q 465 586 467 594 q 658 714 572 714 q 729 658 729 714 q 422 319 729 524 q 421 281 421 304 q 517 56 421 135 q 824 399 651 158 l 838 389 q 636 130 738 243 q 467 -12 535 17 q 363 81 397 4 q 328 247 328 158 q 353 400 328 336 l 349 403 q 190 160 263 257 q 22 -21 118 64 m 388 615 q 291 624 358 624 q 188 605 224 624 q 135 540 151 586 q 104 379 118 493 q 90 192 90 265 q 99 93 90 118 q 143 140 113 93 q 175 188 174 186 q 308 403 228 253 q 388 615 388 554 m 611 646 q 495 565 540 646 q 429 353 450 483 q 582 488 515 408 q 649 617 649 567 q 611 646 649 646 z "},"ç":{"ha":431,"x_min":-69,"x_max":533,"o":"m 324 714 q 432 676 392 714 l 371 604 q 288 658 339 658 q 155 539 211 658 q 99 265 99 419 q 190 60 99 110 q 519 432 333 163 l 533 424 q 331 153 435 275 q 151 -7 226 32 q 79 -69 90 -58 q 163 -116 121 -81 q 204 -181 204 -151 q 152 -271 204 -231 q 30 -311 100 -311 q -69 -256 -40 -311 l -7 -201 q 82 -256 22 -256 q 142 -235 142 -256 q 97 -162 142 -199 q -11 -103 53 -125 l 104 -6 q 4 256 4 40 q 42 446 4 356 q 133 592 79 536 q 238 681 186 649 q 324 714 290 714 z "},"è":{"ha":414,"x_min":7,"x_max":517,"o":"m 290 658 q 175 572 221 658 q 108 353 129 486 q 261 488 194 408 q 328 613 328 567 q 290 658 328 658 m 60 469 q 87 524 60 469 q 191 647 114 579 q 338 714 268 714 q 408 658 408 714 q 101 319 408 524 q 100 281 100 304 q 194 54 100 124 q 503 397 332 160 l 517 388 q 315 128 417 242 q 146 -14 214 15 q 42 78 76 3 q 7 257 7 154 q 60 469 7 360 m 96 1053 q 286 956 203 1053 q 385 825 322 913 l 364 800 q 193 961 260 921 q 139 987 169 975 q 106 999 108 999 l 85 1053 q 96 1053 90 1053 z "},"é":{"ha":424,"x_min":7,"x_max":551,"o":"m 290 658 q 175 572 221 658 q 108 353 129 486 q 261 488 194 408 q 328 613 328 567 q 290 658 328 658 m 60 469 q 87 524 60 469 q 191 647 114 579 q 338 714 268 714 q 408 658 408 714 q 101 319 408 524 q 100 281 100 304 q 194 54 100 124 q 503 397 332 160 l 517 388 q 315 128 417 242 q 146 -14 214 15 q 42 78 76 3 q 7 257 7 154 q 60 469 7 360 m 540 1053 q 551 1053 546 1053 l 531 999 q 428 951 490 990 q 271 801 365 911 l 251 825 q 350 956 314 913 q 540 1053 433 1053 z "},"ê":{"ha":414,"x_min":6,"x_max":528,"o":"m 289 658 q 174 572 219 658 q 107 353 128 486 q 260 488 193 408 q 326 613 326 567 q 289 658 326 658 m 59 469 q 86 524 59 469 q 190 647 113 579 q 337 714 267 714 q 407 658 407 714 q 100 319 407 524 q 99 281 99 304 q 193 54 99 124 q 501 397 331 160 l 515 388 q 314 128 415 242 q 144 -14 213 15 q 40 78 75 3 q 6 257 6 154 q 59 469 6 360 m 367 1058 q 451 1008 399 1046 q 528 944 503 971 l 479 899 q 328 1004 390 985 q 181 901 264 972 l 167 914 q 267 1010 222 975 q 367 1058 313 1046 z "},"ë":{"ha":417,"x_min":7,"x_max":535,"o":"m 290 658 q 175 572 221 658 q 108 353 129 486 q 261 488 194 408 q 328 613 328 567 q 290 658 328 658 m 60 469 q 87 524 60 469 q 191 647 114 579 q 338 714 268 714 q 408 658 408 714 q 101 319 408 524 q 100 281 100 304 q 194 54 100 124 q 503 397 332 160 l 517 388 q 315 128 417 242 q 146 -14 214 15 q 42 78 76 3 q 7 257 7 154 q 60 469 7 360 m 132 947 l 207 1017 q 274 944 253 981 l 203 868 q 132 947 151 931 m 394 947 l 469 1017 q 535 944 508 992 l 472 868 q 394 947 431 921 z "},"ì":{"ha":308,"x_min":-81,"x_max":410,"o":"m 38 -14 q 35 65 35 19 q 46 191 35 111 q 82 406 57 271 q 121 629 107 542 l 24 558 l 26 574 q 53 609 36 588 q 119 669 71 631 q 211 715 168 708 q 182 506 203 661 q 100 76 140 189 l 103 72 q 394 397 222 157 l 410 388 q 208 128 310 242 q 38 -14 107 15 m -69 1060 q 119 963 38 1060 q 219 832 157 919 l 199 807 q 28 968 94 928 q -26 994 4 982 q -60 1006 -57 1006 l -81 1060 q -69 1060 -75 1060 z "},"í":{"ha":304,"x_min":17,"x_max":408,"o":"m 31 -14 q 28 65 28 19 q 39 191 28 111 q 75 406 50 271 q 114 629 100 542 l 17 558 l 19 574 q 47 609 29 588 q 113 669 64 631 q 204 715 161 708 q 175 506 196 661 q 93 76 133 189 l 96 72 q 388 397 215 157 l 403 388 q 201 128 303 242 q 31 -14 100 15 m 397 1056 q 408 1056 403 1056 l 388 1001 q 285 953 347 993 q 128 804 222 914 l 108 828 q 208 958 171 915 q 397 1056 290 1056 z "},"î":{"ha":307,"x_min":13,"x_max":408,"o":"m 36 -14 q 33 65 33 19 q 44 191 33 111 q 81 406 56 271 q 119 629 106 542 l 22 558 l 25 574 q 52 609 35 588 q 118 669 69 631 q 210 715 167 708 q 181 506 201 661 q 99 76 139 189 l 101 72 q 393 397 221 157 l 408 388 q 207 128 308 242 q 36 -14 106 15 m 213 1064 q 297 1014 244 1051 q 374 950 349 976 l 325 904 q 174 1010 236 990 q 26 907 110 978 l 13 919 q 113 1016 68 981 q 213 1064 158 1051 z "},"ï":{"ha":311,"x_min":-21,"x_max":414,"o":"m 42 -14 q 39 65 39 19 q 50 191 39 111 q 86 406 61 271 q 125 629 111 542 l 28 558 l 31 574 q 58 609 40 588 q 124 669 75 631 q 215 715 172 708 q 186 506 207 661 q 104 76 144 189 l 107 72 q 399 397 226 157 l 414 388 q 213 128 314 242 q 42 -14 111 15 m -21 983 l 54 1053 q 121 981 100 1017 l 50 904 q -21 983 -1 967 m 242 983 l 317 1053 q 382 981 356 1028 l 319 904 q 242 983 278 957 z "},"ð":{"ha":514,"x_min":-61,"x_max":460,"o":"m 460 422 q 385 159 460 274 q 149 -12 311 44 q 53 92 90 13 q 17 247 17 172 q 78 488 17 375 q 232 665 139 600 l 254 640 q 140 483 181 576 q 100 292 100 390 q 186 43 100 142 q 385 408 385 129 q 250 889 385 688 l 85 799 l 64 849 l 215 938 q -61 1128 103 1079 l 6 1181 q 290 982 171 1144 l 435 1067 l 457 1003 l 325 931 q 460 422 460 708 z "},"ñ":{"ha":628,"x_min":25,"x_max":732,"o":"m 499 714 q 522 604 522 694 q 474 301 522 514 q 422 75 425 88 l 426 72 q 718 397 550 161 l 732 388 q 534 131 636 246 q 361 -14 432 15 q 358 39 358 19 q 390 307 358 128 q 421 581 421 486 l 415 583 q 235 345 332 508 q 75 -14 138 182 q 43 75 43 22 q 101 497 43 119 l 121 622 l 117 625 l 25 558 l 28 574 q 55 609 38 588 q 121 669 72 631 q 213 715 169 708 q 183 499 203 657 q 150 267 164 342 l 154 264 q 328 551 236 424 q 499 714 421 678 m 449 906 q 365 931 418 906 q 281 957 311 957 q 208 938 250 957 q 142 899 165 919 l 135 919 q 294 1025 203 989 q 378 1001 325 1025 q 463 976 432 976 q 538 991 494 976 q 603 1021 582 1006 l 614 1006 q 449 906 536 926 z "},"ò":{"ha":510,"x_min":11,"x_max":456,"o":"m 456 451 q 356 167 456 308 q 125 -12 256 25 q 42 90 72 11 q 11 247 11 169 q 110 535 11 397 q 342 711 210 674 q 424 606 392 688 q 456 451 456 524 m 103 315 q 106 228 103 261 q 163 43 113 133 q 364 383 364 129 q 361 472 364 438 q 304 656 354 565 q 150 523 197 607 q 103 315 103 439 m 108 1053 q 297 956 215 1053 q 397 825 335 913 l 376 800 q 206 961 272 921 q 151 987 182 975 q 118 999 121 999 l 97 1053 q 108 1053 103 1053 z "},"ó":{"ha":507,"x_min":7,"x_max":565,"o":"m 451 451 q 351 167 451 308 q 121 -12 251 25 q 38 90 68 11 q 7 247 7 169 q 106 535 7 397 q 338 711 206 674 q 419 606 388 688 q 451 451 451 524 m 99 315 q 101 228 99 261 q 158 43 108 133 q 360 383 360 129 q 357 472 360 438 q 300 656 350 565 q 146 523 193 607 q 99 315 99 439 m 554 1056 q 565 1056 560 1056 l 544 1001 q 442 953 504 993 q 285 804 379 914 l 265 828 q 364 958 328 915 q 554 1056 447 1056 z "},"ô":{"ha":499,"x_min":7,"x_max":540,"o":"m 451 451 q 351 167 451 308 q 121 -12 251 25 q 38 90 68 11 q 7 247 7 169 q 106 535 7 397 q 338 711 206 674 q 419 606 388 688 q 451 451 451 524 m 99 315 q 101 228 99 261 q 158 43 108 133 q 360 383 360 129 q 357 472 360 438 q 300 656 350 565 q 146 523 193 607 q 99 315 99 439 m 379 1063 q 463 1013 411 1050 q 540 949 515 975 l 492 903 q 340 1008 403 989 q 193 906 276 976 l 179 918 q 280 1015 235 979 q 379 1063 325 1050 z "},"õ":{"ha":506,"x_min":7,"x_max":568,"o":"m 451 451 q 351 167 451 308 q 121 -12 251 25 q 38 90 68 11 q 7 247 7 169 q 106 535 7 397 q 338 711 206 674 q 419 606 388 688 q 451 451 451 524 m 99 315 q 101 228 99 261 q 158 43 108 133 q 360 383 360 129 q 357 472 360 438 q 300 656 350 565 q 146 523 193 607 q 99 315 99 439 m 403 883 q 319 909 372 883 q 235 935 265 935 q 162 916 204 935 q 96 876 119 897 l 89 897 q 249 1003 157 967 q 333 978 279 1003 q 417 954 386 954 q 492 969 449 954 q 557 999 536 983 l 568 983 q 403 883 490 904 z "},"ö":{"ha":510,"x_min":10,"x_max":551,"o":"m 454 451 q 354 167 454 308 q 124 -12 254 25 q 40 90 71 11 q 10 247 10 169 q 109 535 10 397 q 340 711 208 674 q 422 606 390 688 q 454 451 454 524 m 101 315 q 104 228 101 261 q 161 43 111 133 q 363 383 363 129 q 360 472 363 438 q 303 656 353 565 q 149 523 196 607 q 101 315 101 439 m 149 947 l 224 1017 q 290 944 269 981 l 219 868 q 149 947 168 931 m 411 947 l 486 1017 q 551 944 525 992 l 489 868 q 411 947 447 921 z "},"÷":{"ha":749,"x_min":40,"x_max":706,"o":"m 289 679 l 389 775 q 475 663 429 750 l 385 575 q 335 626 364 589 q 289 679 306 663 m 289 186 l 389 281 q 433 224 411 267 q 475 169 454 182 l 385 81 q 339 133 367 93 q 289 186 311 172 m 476 397 l 71 404 q 40 404 53 404 l 115 479 q 206 481 150 481 l 569 475 q 706 479 658 475 l 631 404 q 476 397 585 397 z "},"ø":{"ha":507,"x_min":-17,"x_max":483,"o":"m 451 451 q 351 167 451 308 q 121 -12 251 25 q 64 38 89 1 l 13 -50 l -17 -18 l 42 79 q 7 247 7 157 q 106 535 7 397 q 338 711 206 674 q 389 663 367 697 l 454 771 l 483 750 l 410 626 q 451 451 451 539 m 360 383 q 349 522 360 467 l 119 132 q 158 43 138 79 q 360 383 360 129 m 300 656 q 146 523 193 607 q 99 335 99 439 q 106 188 99 232 l 336 574 q 300 656 326 607 z "},"ù":{"ha":639,"x_min":26,"x_max":747,"o":"m 349 39 q 408 435 349 156 l 404 438 q 237 151 325 278 q 74 -12 149 24 q 58 115 58 39 q 79 340 58 192 l 117 624 l 26 558 l 29 574 q 56 609 39 588 q 122 669 74 631 q 214 715 171 708 q 139 149 139 332 q 146 92 139 126 q 294 287 214 158 q 436 575 375 415 q 532 714 481 694 l 433 150 q 413 75 426 113 l 417 72 q 733 432 550 168 l 747 424 q 534 142 643 268 q 351 -14 425 17 q 349 39 349 19 m 115 1053 q 306 956 222 1053 q 404 825 342 913 l 383 800 q 213 961 279 921 q 158 987 189 975 q 125 999 128 999 l 104 1053 q 115 1053 110 1053 z "},"ú":{"ha":640,"x_min":26,"x_max":747,"o":"m 349 39 q 408 435 349 156 l 404 438 q 237 151 325 278 q 74 -12 149 24 q 58 115 58 39 q 79 340 58 192 l 117 624 l 26 558 l 29 574 q 56 609 39 588 q 122 669 74 631 q 214 715 171 708 q 139 149 139 332 q 146 92 139 126 q 294 287 214 158 q 436 575 375 415 q 532 714 481 694 l 433 150 q 413 75 426 113 l 417 72 q 733 432 550 168 l 747 424 q 534 142 643 268 q 351 -14 425 17 q 349 39 349 19 m 607 1053 q 618 1053 613 1053 l 597 999 q 494 951 557 990 q 338 801 432 911 l 318 825 q 417 956 381 913 q 607 1053 500 1053 z "},"û":{"ha":640,"x_min":26,"x_max":747,"o":"m 349 39 q 408 435 349 156 l 404 438 q 237 151 325 278 q 74 -12 149 24 q 58 115 58 39 q 79 340 58 192 l 117 624 l 26 558 l 29 574 q 56 609 39 588 q 122 669 74 631 q 214 715 171 708 q 139 149 139 332 q 146 92 139 126 q 294 287 214 158 q 436 575 375 415 q 532 714 481 694 l 433 150 q 413 75 426 113 l 417 72 q 733 432 550 168 l 747 424 q 534 142 643 268 q 351 -14 425 17 q 349 39 349 19 m 414 1063 q 498 1013 446 1050 q 575 949 550 975 l 526 903 q 375 1008 438 989 q 228 906 311 976 l 214 918 q 315 1015 269 979 q 414 1063 360 1050 z "},"ü":{"ha":640,"x_min":26,"x_max":747,"o":"m 349 39 q 408 435 349 156 l 404 438 q 237 151 325 278 q 74 -12 149 24 q 58 115 58 39 q 79 340 58 192 l 117 624 l 26 558 l 29 574 q 56 609 39 588 q 122 669 74 631 q 214 715 171 708 q 139 149 139 332 q 146 92 139 126 q 294 287 214 158 q 436 575 375 415 q 532 714 481 694 l 433 150 q 413 75 426 113 l 417 72 q 733 432 550 168 l 747 424 q 534 142 643 268 q 351 -14 425 17 q 349 39 349 19 m 197 1011 l 272 1081 q 339 1008 318 1044 l 268 932 q 197 1011 217 994 m 460 1011 l 535 1081 q 600 1008 574 1056 l 538 932 q 460 1011 496 985 z "},"ý":{"ha":585,"x_min":-21,"x_max":629,"o":"m 140 138 q 140 106 140 121 l 146 92 q 294 286 214 157 q 435 575 374 415 q 446 601 436 578 q 458 631 456 625 q 471 656 461 638 q 489 682 481 674 q 532 714 511 707 q 523 665 529 693 q 509 596 517 636 q 490 478 501 556 q 463 282 478 401 q 440 104 449 163 q 326 -194 414 -89 q 86 -299 238 -299 q -21 -286 29 -299 l 33 -201 q 146 -219 93 -219 q 286 -180 244 -219 q 344 -11 328 -140 q 408 435 371 206 l 404 438 q 237 151 325 278 q 74 -12 149 24 q 60 107 60 35 q 64 220 60 179 q 82 363 68 261 l 117 624 l 26 558 l 29 574 q 56 609 39 588 q 122 669 74 631 q 214 715 171 708 q 140 138 140 333 m 618 1053 q 629 1053 624 1053 l 608 999 q 506 951 568 990 q 349 801 443 911 l 329 825 q 428 956 392 913 q 618 1053 511 1053 z "},"þ":{"ha":507,"x_min":-181,"x_max":510,"o":"m 128 -200 l -168 -361 l -181 -346 q -57 -245 -82 -292 q -12 -67 -32 -199 q 38 288 8 65 q 85 625 67 510 l 118 842 q 235 1072 136 961 q 442 1182 333 1182 q 510 1175 482 1182 l 453 1100 q 360 1108 414 1108 q 243 999 288 1108 q 212 894 221 942 q 199 828 203 847 q 190 768 196 808 q 178 690 185 728 q 157 560 172 651 q 132 408 142 469 l 136 407 q 410 719 254 624 q 444 632 435 679 q 453 494 453 585 q 417 288 453 403 q 316 87 381 172 q 182 1 251 1 q 93 40 133 1 q 61 -87 76 -18 q 36 -185 46 -156 q 8 -239 26 -215 l 13 -246 q 119 -179 15 -244 l 128 -200 m 185 75 q 317 157 281 75 q 353 461 353 239 q 340 596 353 564 q 222 483 296 578 q 124 287 147 389 q 97 97 101 185 q 139 82 108 89 q 185 75 169 75 z "},"ÿ":{"ha":583,"x_min":-21,"x_max":590,"o":"m 140 138 q 140 106 140 121 l 146 92 q 294 286 214 157 q 435 575 374 415 q 446 601 436 578 q 458 631 456 625 q 471 656 461 638 q 489 682 481 674 q 532 714 511 707 q 523 665 529 693 q 509 596 517 636 q 490 478 501 556 q 463 282 478 401 q 440 104 449 163 q 326 -194 414 -89 q 86 -299 238 -299 q -21 -286 29 -299 l 33 -201 q 146 -219 93 -219 q 286 -180 244 -219 q 344 -11 328 -140 q 408 435 371 206 l 404 438 q 237 151 325 278 q 74 -12 149 24 q 60 107 60 35 q 64 220 60 179 q 82 363 68 261 l 117 624 l 26 558 l 29 574 q 56 609 39 588 q 122 669 74 631 q 214 715 171 708 q 140 138 140 333 m 188 958 l 263 1028 q 329 956 308 992 l 258 879 q 188 958 207 942 m 450 958 l 525 1028 q 590 956 564 1003 l 528 879 q 450 958 486 932 z "},"ħ":{"ha":632,"x_min":18,"x_max":731,"o":"m 471 1182 q 539 1175 511 1182 l 482 1100 q 394 1108 443 1108 q 240 925 283 1108 q 349 931 311 931 q 496 926 388 931 l 428 864 q 346 865 400 865 q 229 861 292 865 q 214 736 214 760 l 151 261 q 499 714 369 653 q 522 597 522 696 q 475 304 522 499 q 422 75 428 110 l 425 72 q 717 397 546 160 l 731 388 q 529 128 631 242 q 360 -14 428 15 q 357 39 357 19 q 389 308 357 126 q 421 588 421 489 q 235 347 333 510 q 75 -14 138 183 q 43 75 43 22 q 46 101 43 85 l 147 842 q 148 847 147 844 q 149 853 149 850 q 18 833 103 847 l 82 906 q 167 917 153 915 q 292 1102 206 1022 q 471 1182 378 1182 z "},"Ĩ":{"ha":650,"x_min":4,"x_max":721,"o":"m 440 -1 l 150 0 l 144 11 q 304 246 265 36 q 368 623 338 429 q 413 876 399 817 q 444 964 428 936 l 351 964 q 156 888 213 964 q 100 628 100 813 l 4 553 q 61 824 4 711 q 256 1015 118 936 q 457 1043 304 1043 l 582 1043 l 583 1039 q 515 917 531 1006 q 486 731 506 860 q 407 258 453 519 q 301 90 388 172 l 307 79 q 387 78 340 78 q 488 85 433 78 q 597 131 543 93 l 603 119 q 440 -1 461 0 m 556 1151 q 472 1177 525 1151 q 388 1203 418 1203 q 315 1184 357 1203 q 249 1144 272 1165 l 242 1165 q 401 1271 310 1235 q 485 1247 432 1271 q 570 1222 539 1222 q 645 1237 601 1222 q 710 1267 689 1251 l 721 1251 q 556 1151 643 1172 z "},"ĩ":{"ha":329,"x_min":-28,"x_max":451,"o":"m 65 -14 q 63 65 63 19 q 74 191 63 111 q 110 406 85 271 q 149 629 135 542 l 51 558 l 54 574 q 81 609 64 588 q 147 669 99 631 q 239 715 196 708 q 211 506 229 656 q 128 76 174 190 l 131 72 q 422 397 250 157 l 438 388 q 236 128 338 242 q 65 -14 135 15 m 286 908 q 202 934 256 908 q 118 960 149 960 q 45 941 88 960 q -21 901 3 922 l -28 922 q 132 1028 40 992 q 216 1003 163 1028 q 301 979 269 979 q 376 994 332 979 q 440 1024 419 1008 l 451 1008 q 286 908 374 929 z "},"ı":{"ha":313,"x_min":29,"x_max":415,"o":"m 43 -14 q 40 65 40 19 q 51 191 40 111 q 88 406 63 271 q 126 629 113 542 l 29 558 l 32 574 q 59 609 42 588 q 125 669 76 631 q 217 715 174 708 q 189 506 207 656 q 106 76 151 190 l 108 72 q 400 397 228 157 l 415 388 q 214 128 315 242 q 43 -14 113 15 z "},"Ĳ":{"ha":1125,"x_min":-7,"x_max":1090,"o":"m 964 1043 l 1089 1043 l 1090 1039 q 1050 994 1069 1026 q 1024 917 1031 963 q 869 15 961 494 q 763 -158 854 -61 q 571 -281 671 -254 q 369 -189 489 -281 q 339 -167 340 -168 l 419 -112 q 467 -155 449 -140 q 522 -187 485 -169 q 593 -206 558 -206 q 719 -147 667 -206 q 792 57 771 -89 q 836 357 813 203 q 926 893 879 624 q 956 964 935 939 l 860 964 q 706 924 749 964 q 664 781 664 885 l 568 706 q 612 891 568 821 q 764 1015 656 961 q 964 1043 821 1043 m 360 -1 l 139 0 l 133 11 q 293 246 254 36 q 357 623 326 429 q 402 876 388 817 q 433 964 417 936 l 340 964 q 145 888 201 964 q 89 628 89 813 l -7 553 q 50 824 -7 711 q 244 1015 107 936 q 446 1043 293 1043 l 571 1043 l 572 1039 q 504 917 519 1006 q 460 650 501 901 q 396 258 419 399 q 365 177 389 215 q 290 90 342 139 l 296 79 q 351 78 315 78 q 517 131 458 78 l 522 119 q 479 81 521 118 q 360 -1 390 1 z "},"ĳ":{"ha":583,"x_min":29,"x_max":564,"o":"m 99 -300 q 31 -293 58 -300 l 88 -204 q 165 -212 126 -212 q 228 -203 204 -212 q 268 -182 251 -194 q 299 -143 285 -169 q 320 -97 313 -117 q 335 -36 328 -76 q 347 29 343 4 q 357 106 350 54 q 368 185 364 157 l 393 356 q 201 117 296 219 q 43 -14 107 14 q 40 65 40 19 q 51 191 40 111 q 88 406 63 271 q 126 629 113 542 l 29 558 l 32 574 q 59 609 42 588 q 125 669 76 631 q 217 715 174 708 q 188 506 208 661 q 106 76 146 189 l 108 72 q 399 396 226 156 l 433 629 l 336 558 l 339 574 q 366 609 349 588 q 432 669 383 631 q 524 715 481 708 l 458 231 q 326 -164 424 -28 q 99 -300 228 -300 m 563 1017 q 564 965 564 1006 q 472 826 564 874 q 489 950 486 864 l 563 1017 m 247 1021 q 249 969 249 1010 q 157 831 249 878 q 174 954 171 868 l 247 1021 z "},"Ĵ":{"ha":742,"x_min":-100,"x_max":753,"o":"m 525 1043 l 650 1043 l 651 1039 q 611 994 631 1026 q 585 917 592 963 q 431 15 522 494 q 324 -158 415 -61 q 132 -281 232 -254 q -69 -189 50 -281 q -100 -167 -99 -168 l -19 -112 q 28 -155 10 -140 q 83 -187 46 -169 q 154 -206 119 -206 q 280 -147 228 -206 q 353 57 332 -89 q 397 357 374 203 q 488 893 440 624 q 517 964 496 939 l 421 964 q 226 888 282 964 q 169 628 169 813 l 74 553 q 131 824 74 711 q 325 1015 188 936 q 525 1043 374 1043 m 592 1267 q 676 1217 624 1254 q 753 1153 728 1179 l 704 1107 q 553 1213 615 1193 q 406 1110 489 1181 l 392 1122 q 492 1219 447 1183 q 592 1267 538 1254 z "},"ĵ":{"ha":271,"x_min":-282,"x_max":392,"o":"m -214 -300 q -282 -293 -254 -300 l -225 -204 q -147 -212 -186 -212 q -85 -203 -108 -212 q -44 -182 -61 -194 q -14 -143 -28 -169 q 8 -97 0 -117 q 23 -36 15 -76 q 34 29 31 4 q 44 106 38 54 q 56 185 51 157 l 121 629 l 24 558 l 26 574 q 53 609 36 588 q 119 669 71 631 q 211 715 168 708 l 146 231 q 13 -164 111 -28 q -214 -300 -85 -300 m 231 1063 q 315 1013 263 1050 q 392 949 367 975 l 343 903 q 192 1008 254 989 q 44 906 128 976 l 31 918 q 131 1015 86 979 q 231 1063 176 1050 z "},"ķ":{"ha":608,"x_min":46,"x_max":758,"o":"m 221 781 l 182 468 q 314 644 235 575 q 476 714 393 714 q 543 644 543 714 q 338 388 543 493 q 390 227 357 340 q 432 72 424 114 q 580 201 485 101 q 744 397 675 300 l 758 388 q 557 128 658 242 q 388 -14 456 15 q 295 186 354 43 q 219 365 236 329 q 397 473 328 410 q 465 607 465 536 q 424 658 465 658 q 336 622 375 658 q 256 515 297 586 q 192 376 215 444 q 156 256 168 308 q 124 116 143 203 q 94 -12 106 29 q 46 81 46 19 q 47 101 46 94 l 149 842 q 263 1072 165 961 q 472 1182 361 1182 q 540 1175 513 1182 l 483 1100 q 401 1108 444 1108 q 327 1085 357 1108 q 280 1032 297 1063 q 250 951 263 1001 q 221 781 221 835 m 115 -372 q 168 -260 168 -304 q 103 -140 168 -215 q 200 -53 149 -87 q 271 -161 250 -119 q 233 -251 268 -183 q 140 -393 197 -319 l 115 -372 z "},"ĸ":{"ha":639,"x_min":28,"x_max":747,"o":"m 81 -14 q 39 66 39 8 q 50 199 39 124 q 85 405 61 275 q 125 629 110 535 l 28 558 l 31 574 q 58 609 40 588 q 124 669 75 631 q 215 715 172 708 q 92 31 143 208 q 81 -14 85 3 m 465 715 q 532 646 532 715 q 326 389 532 494 q 379 228 346 342 q 421 74 413 115 q 569 202 474 103 q 733 399 664 301 l 747 389 q 546 130 647 243 q 376 -12 444 17 q 284 188 343 44 q 208 367 225 331 q 385 474 317 411 q 454 608 454 538 q 407 660 454 660 q 336 621 390 660 l 324 636 q 465 715 407 715 z "},"Ŀ":{"ha":725,"x_min":-64,"x_max":839,"o":"m 513 1044 q 651 996 589 1044 l 569 926 q 421 990 485 990 q 288 818 317 990 q 236 496 265 692 q 199 258 207 300 q 93 90 182 175 l 99 79 q 351 -17 218 79 q 461 -96 407 -56 q 704 -192 592 -192 q 822 -117 775 -192 l 839 -121 q 755 -228 821 -186 q 624 -271 689 -271 q 499 -242 560 -271 q 379 -172 438 -212 q 261 -89 321 -131 q 26 11 119 11 q -58 0 -14 11 l -64 11 q 96 246 57 36 q 153 590 133 440 q 179 778 174 740 q 298 963 196 881 q 513 1044 400 1044 m 417 429 l 511 532 q 593 439 553 504 l 501 346 q 417 429 490 363 z "},"ŀ":{"ha":550,"x_min":46,"x_max":549,"o":"m 481 1182 q 549 1175 521 1182 l 492 1100 q 410 1108 453 1108 q 338 1088 367 1108 q 292 1039 308 1067 q 262 964 275 1011 q 244 885 249 917 q 233 802 239 854 q 220 713 226 750 q 196 522 214 676 q 110 75 157 190 l 114 72 q 264 213 157 104 l 276 196 q 49 -14 143 28 q 46 64 46 19 q 65 246 46 108 q 115 575 83 383 q 157 842 146 767 q 271 1071 174 960 q 481 1182 368 1182 m 335 429 l 428 531 q 508 439 460 508 l 418 347 q 335 429 407 367 z "},"Ł":{"ha":622,"x_min":-76,"x_max":826,"o":"m 500 1044 q 639 996 576 1044 l 557 926 q 408 990 472 990 q 275 818 304 990 l 247 653 q 438 749 356 714 l 403 665 q 236 578 317 625 q 217 450 228 526 q 186 258 194 294 q 81 90 169 175 l 86 79 q 336 -17 203 79 q 447 -96 392 -56 q 692 -192 579 -192 q 810 -117 763 -192 l 826 -121 q 742 -228 808 -186 q 613 -271 676 -271 q 487 -242 549 -271 q 367 -172 425 -212 q 250 -89 308 -131 q 14 11 110 11 q -71 0 -26 11 l -76 11 q 83 246 44 36 q 128 508 107 376 q -10 415 24 439 l 22 508 q 139 585 50 528 q 151 674 142 603 q 167 778 161 744 q 285 963 183 881 q 500 1044 388 1044 z "},"ł":{"ha":363,"x_min":8,"x_max":542,"o":"m 42 -14 q 40 37 40 1 q 44 116 40 72 q 53 192 49 160 q 68 278 58 224 q 82 363 78 333 l 96 454 q 8 389 64 428 l 28 474 l 106 528 l 150 842 q 264 1075 167 968 q 474 1182 361 1182 q 542 1175 514 1182 l 485 1100 q 403 1108 446 1108 q 331 1088 360 1108 q 285 1039 301 1067 q 255 964 268 1011 q 237 885 242 917 q 226 802 232 854 q 214 716 219 750 q 194 576 208 682 q 351 663 275 631 l 328 585 q 186 504 260 553 q 103 75 147 186 l 107 72 q 465 439 228 160 l 479 431 q 42 -14 176 43 z "},"Ń":{"ha":1089,"x_min":-107,"x_max":1032,"o":"m 350 1042 l 481 1042 q 736 142 656 538 q 786 449 756 243 q 841 784 817 656 q 893 964 865 913 q 810 965 864 965 q 690 956 757 965 l 689 958 q 786 1026 732 1010 q 956 1043 840 1043 l 1031 1043 l 1032 1039 q 964 917 979 1006 l 858 303 q 795 94 835 165 q 675 -14 756 22 l 669 -3 l 707 18 q 546 486 640 222 q 403 893 451 750 q 356 599 379 793 q 317 317 332 404 q 209 78 288 157 q 18 0 131 0 q 10 0 14 0 l -65 1 l 0 90 q 95 78 50 78 q 161 100 140 78 q 196 192 182 122 q 257 559 231 371 q 297 839 283 747 q 328 964 311 931 l 238 965 q 233 965 235 965 q 45 888 101 965 q -11 628 -11 811 l -107 553 q -50 824 -107 711 q 144 1015 7 936 q 350 1042 190 1042 m 869 1315 q 881 1315 875 1315 l 860 1261 q 757 1213 819 1253 q 600 1064 694 1174 l 581 1088 q 681 1218 643 1175 q 869 1315 763 1315 z "},"ń":{"ha":632,"x_min":43,"x_max":750,"o":"m 469 1051 l 539 1021 q 350 792 419 938 l 306 806 q 469 1051 369 1011 m 517 714 q 540 604 540 694 q 492 301 540 514 q 440 75 443 88 l 444 72 q 736 397 568 161 l 750 388 q 552 131 654 246 q 379 -14 450 15 q 376 39 376 19 q 408 307 376 128 q 439 581 439 486 l 433 583 q 253 345 350 508 q 93 -14 156 182 q 61 75 61 22 q 119 497 61 119 l 139 622 l 135 625 l 43 558 l 46 574 q 73 609 56 588 q 139 669 90 631 q 231 715 188 708 q 201 499 221 657 q 168 267 182 342 l 172 264 q 347 551 254 424 q 517 714 439 678 z "},"Œ":{"ha":1107,"x_min":46,"x_max":1115,"o":"m 825 529 l 639 532 q 592 252 607 329 q 488 90 576 175 l 494 75 l 808 75 q 1011 131 935 75 l 1017 119 q 854 -1 904 33 l 379 -1 q 220 27 288 -1 q 117 106 153 56 q 46 329 46 201 q 118 657 46 494 q 329 931 190 819 q 636 1043 468 1043 l 904 1043 q 1115 1044 1069 1043 l 1038 963 l 715 964 q 701 917 706 938 l 654 618 q 679 618 665 618 l 838 613 q 972 626 910 613 l 979 621 q 913 557 954 585 q 825 529 872 529 m 631 965 q 550 969 592 969 q 472 968 508 969 q 235 759 331 925 q 140 413 140 593 q 250 131 140 228 q 396 76 310 76 q 490 246 469 128 q 547 587 519 401 q 590 849 574 772 q 631 965 606 925 z "},"œ":{"ha":740,"x_min":7,"x_max":846,"o":"m 667 714 q 738 658 738 714 q 431 319 738 524 q 428 272 428 304 q 524 54 428 142 q 832 399 660 158 l 846 389 q 644 130 746 243 q 475 -12 543 17 q 392 46 424 -1 q 346 158 360 93 q 121 -12 244 22 q 38 90 68 11 q 7 247 7 169 q 106 535 7 397 q 338 711 206 674 q 440 540 406 676 q 552 666 488 618 q 667 714 617 714 m 99 315 q 101 228 99 261 q 158 43 108 133 q 360 383 360 129 q 357 472 360 438 q 300 656 350 565 q 146 523 193 607 q 99 315 99 439 m 619 646 q 439 353 482 646 q 590 488 524 410 q 657 617 657 567 q 619 646 657 646 z "},"Ŕ":{"ha":788,"x_min":-146,"x_max":881,"o":"m -3 882 q 185 1003 69 960 q 453 1047 301 1047 q 685 993 604 1047 q 767 843 767 939 q 689 662 767 747 q 485 547 611 576 q 670 210 557 397 q 881 -108 783 22 l 832 -157 q 339 532 557 142 l 385 581 l 439 581 q 603 637 544 581 q 663 775 663 693 q 595 918 663 857 q 406 979 528 979 l 379 979 q 356 903 364 947 q 328 731 349 860 q 250 258 296 519 q 144 90 236 178 l 150 79 l 235 79 q 411 131 335 79 l 417 119 q 354 67 371 82 q 322 40 338 53 q 299 22 307 28 q 281 11 290 17 q 254 -1 263 -1 q -7 0 85 -1 l -12 11 q 147 246 108 36 q 214 635 185 451 q 260 881 243 818 q 301 975 278 944 q 45 872 146 975 q -56 561 -56 768 l -146 483 q -3 882 -146 725 m 699 1325 q 710 1325 704 1325 l 689 1271 q 586 1223 649 1263 q 429 1074 524 1183 l 410 1097 q 508 1228 472 1185 q 699 1325 592 1325 z "},"Ŗ":{"ha":832,"x_min":-146,"x_max":881,"o":"m -3 882 q 185 1003 69 960 q 453 1047 301 1047 q 685 993 604 1047 q 767 843 767 939 q 689 662 767 747 q 485 547 611 576 q 670 210 557 397 q 881 -108 783 22 l 832 -157 q 339 532 557 142 l 385 581 l 439 581 q 603 637 544 581 q 663 775 663 693 q 595 918 663 857 q 406 979 528 979 l 379 979 q 356 903 364 947 q 328 731 349 860 q 250 258 296 519 q 144 90 236 178 l 150 79 l 235 79 q 411 131 335 79 l 417 119 q 354 67 371 82 q 322 40 338 53 q 299 22 307 28 q 281 11 290 17 q 254 -1 263 -1 q -7 0 85 -1 l -12 11 q 147 246 108 36 q 214 635 185 451 q 260 881 243 818 q 301 975 278 944 q 45 872 146 975 q -56 561 -56 768 l -146 483 q -3 882 -146 725 m 283 -374 q 336 -261 336 -306 q 271 -142 336 -217 q 368 -54 317 -89 q 439 -162 418 -121 q 401 -253 436 -185 q 308 -394 365 -321 l 283 -374 z "},"ŗ":{"ha":433,"x_min":-39,"x_max":521,"o":"m 472 715 q 521 701 501 715 l 475 624 q 426 638 460 638 q 275 483 361 638 q 117 51 189 329 l 40 -14 q 38 65 38 19 q 49 191 38 111 q 85 406 60 271 q 124 629 110 542 l 26 558 l 29 574 q 56 609 39 588 q 122 669 74 631 q 214 715 171 708 q 187 524 204 656 q 160 331 169 393 l 169 331 q 316 617 243 519 q 472 715 389 715 m -26 -372 q 26 -260 26 -304 q -39 -140 26 -215 q 58 -53 7 -87 q 129 -161 108 -119 q 91 -251 126 -183 q -1 -393 56 -319 l -26 -372 z "},"Ř":{"ha":788,"x_min":-146,"x_max":881,"o":"m -3 882 q 185 1003 69 960 q 453 1047 301 1047 q 685 993 604 1047 q 767 843 767 939 q 689 662 767 747 q 485 547 611 576 q 670 210 557 397 q 881 -108 783 22 l 832 -157 q 339 532 557 142 l 385 581 l 439 581 q 603 637 544 581 q 663 775 663 693 q 595 918 663 857 q 406 979 528 979 l 379 979 q 356 903 364 947 q 328 731 349 860 q 250 258 296 519 q 144 90 236 178 l 150 79 l 235 79 q 411 131 335 79 l 417 119 q 354 67 371 82 q 322 40 338 53 q 299 22 307 28 q 281 11 290 17 q 254 -1 263 -1 q -7 0 85 -1 l -12 11 q 147 246 108 36 q 214 635 185 451 q 260 881 243 818 q 301 975 278 944 q 45 872 146 975 q -56 561 -56 768 l -146 483 q -3 882 -146 725 m 307 1292 l 369 1321 q 526 1207 457 1229 q 701 1333 590 1239 l 715 1321 q 488 1153 582 1175 q 399 1207 451 1168 q 307 1292 347 1246 z "},"ř":{"ha":413,"x_min":-6,"x_max":493,"o":"m 440 715 q 489 701 469 715 l 443 624 q 394 638 428 638 q 243 483 329 638 q 85 51 157 329 l 8 -14 q 6 65 6 19 q 17 191 6 111 q 53 406 28 271 q 92 629 78 542 l -6 558 l -3 574 q 24 609 7 588 q 90 669 42 631 q 182 715 139 708 q 155 524 172 656 q 128 331 138 393 l 138 331 q 284 617 211 519 q 440 715 357 715 m 85 1021 l 147 1050 q 304 936 235 958 q 479 1063 368 968 l 493 1050 q 265 882 360 904 q 177 936 229 897 q 85 1021 125 975 z "},"Š":{"ha":671,"x_min":-42,"x_max":664,"o":"m 250 1300 l 313 1329 q 469 1215 400 1238 q 644 1342 533 1247 l 658 1329 q 431 1161 525 1183 q 342 1215 394 1176 q 250 1300 290 1254 m 146 800 q 240 982 146 908 q 451 1056 335 1056 q 664 1019 567 1056 l 585 928 q 399 969 493 969 q 222 890 222 969 q 267 767 222 839 q 367 634 313 696 q 466 498 421 572 q 511 369 511 424 q 411 102 511 215 q 176 -11 311 -11 q -42 53 40 -11 l 38 142 q 247 68 154 68 q 370 128 314 68 q 426 251 426 188 q 383 391 426 314 q 286 530 339 468 q 190 667 233 592 q 146 800 146 742 z "},"š":{"ha":414,"x_min":-58,"x_max":494,"o":"m 144 665 q 279 714 206 714 q 393 676 353 714 l 328 600 q 231 658 311 658 q 158 633 186 658 q 131 572 131 607 q 139 522 131 539 q 151 496 147 504 q 166 473 156 488 q 181 453 176 458 q 200 433 186 449 q 242 383 214 417 q 319 218 319 296 q 227 65 319 140 q 55 -11 135 -11 q -58 26 -25 -11 l 11 90 q 128 47 60 47 q 210 83 169 47 q 251 158 251 118 q 144 346 251 229 q 96 400 113 381 q 60 454 79 419 q 42 515 42 489 q 144 665 42 585 m 86 994 l 149 1024 q 306 910 236 932 q 481 1036 369 942 l 494 1024 q 267 856 361 878 q 178 910 231 871 q 86 994 126 949 z "},"Ÿ":{"ha":843,"x_min":-118,"x_max":918,"o":"m 357 1197 l 432 1267 q 499 1194 478 1231 l 428 1118 q 357 1197 376 1181 m 619 1197 l 694 1267 q 760 1194 733 1242 l 697 1118 q 619 1197 656 1171 m 222 1051 q 308 1002 268 1051 q 385 831 347 953 q 438 644 422 708 q 508 328 481 469 q 755 770 697 657 q 813 908 813 883 q 787 941 813 932 q 685 950 761 950 l 683 956 l 788 1018 l 842 1018 q 918 963 918 1018 q 707 528 918 900 q 614 364 617 369 q 350 -71 446 49 q 114 -254 254 -190 q -118 -140 10 -240 l -37 -82 q 139 -165 53 -165 q 270 -83 206 -165 q 447 214 335 0 q 406 376 438 249 q 355 574 374 504 q 307 744 336 644 q 203 997 250 939 q 65 927 110 997 q 21 706 21 857 l -75 631 q 13 923 -75 794 q 222 1051 100 1051 z "},"Ż":{"ha":746,"x_min":-35,"x_max":904,"o":"m 138 931 q 236 1021 172 988 q 378 1054 300 1054 q 549 1026 456 1054 q 693 997 642 997 q 894 1049 781 997 l 904 1039 q 517 561 769 917 q 320 310 426 433 q 136 136 214 186 l 142 125 q 299 87 217 125 q 440 3 381 49 q 581 -80 500 -42 q 733 -118 661 -118 q 851 -43 804 -118 l 868 -47 q 784 -155 850 -112 q 649 -197 718 -197 q 498 -156 579 -197 q 350 -63 417 -114 q 201 29 283 -12 q 67 71 118 71 q -29 60 15 71 l -35 71 q 253 378 150 267 q 484 645 356 490 q 697 925 613 800 q 633 921 661 921 q 460 956 557 921 q 314 992 363 992 q 236 983 265 992 q 167 749 167 919 l 71 674 q 138 931 71 821 m 524 1249 l 615 1335 q 700 1232 644 1311 l 611 1153 q 524 1249 540 1235 z "},"ż":{"ha":467,"x_min":-81,"x_max":467,"o":"m 193 703 q 267 697 210 703 q 358 690 324 690 q 458 714 443 690 l 467 710 q 40 101 286 465 q 15 71 32 88 l 19 67 q 101 78 44 78 q 229 67 158 78 q 337 56 300 56 q 428 90 374 56 l 435 82 q 354 13 368 31 q 331 -10 340 -6 q 292 -14 321 -14 q 179 -1 264 -14 q 42 11 94 11 q -67 -12 -10 11 l -81 0 q 336 597 132 296 q 340 608 340 603 q 299 622 340 617 q 232 628 258 628 q 11 557 122 628 l 3 571 q 90 660 36 618 q 193 703 143 703 m 197 985 l 289 1071 q 374 968 318 1047 l 285 889 q 197 985 214 971 z "},"Ž":{"ha":715,"x_min":-65,"x_max":874,"o":"m 107 931 q 206 1021 142 988 q 347 1054 269 1054 q 518 1026 425 1054 q 663 997 611 997 q 864 1049 750 997 l 874 1039 q 486 561 739 917 q 290 310 396 433 q 106 136 183 186 l 111 125 q 268 87 186 125 q 410 3 350 49 q 550 -80 469 -42 q 702 -118 631 -118 q 821 -43 774 -118 l 838 -47 q 753 -155 819 -112 q 618 -197 688 -197 q 467 -156 549 -197 q 319 -63 386 -114 q 170 29 253 -12 q 36 71 88 71 q -60 60 -15 71 l -65 71 q 222 378 119 267 q 453 645 325 490 q 667 925 582 800 q 603 921 632 921 q 429 956 526 921 q 283 992 332 992 q 206 983 235 992 q 136 749 136 919 l 40 674 q 107 931 40 821 m 406 1289 l 468 1318 q 625 1204 556 1226 q 800 1331 689 1236 l 814 1318 q 586 1150 681 1172 q 498 1204 550 1165 q 406 1289 446 1243 z "},"ž":{"ha":450,"x_min":-81,"x_max":583,"o":"m 193 703 q 267 697 210 703 q 358 690 324 690 q 458 714 443 690 l 467 710 q 40 101 286 465 q 15 71 32 88 l 19 67 q 101 78 44 78 q 229 67 158 78 q 337 56 300 56 q 428 90 374 56 l 435 82 q 354 13 368 31 q 331 -10 340 -6 q 292 -14 321 -14 q 179 -1 264 -14 q 42 11 94 11 q -67 -12 -10 11 l -81 0 q 336 597 132 296 q 340 608 340 603 q 299 622 340 617 q 232 628 258 628 q 11 557 122 628 l 3 571 q 90 660 36 618 q 193 703 143 703 m 175 1006 l 238 1035 q 394 921 325 943 q 569 1047 458 953 l 583 1035 q 356 867 450 889 q 267 921 319 882 q 175 1006 215 960 z "},"ƒ":{"ha":524,"x_min":-160,"x_max":599,"o":"m 503 960 q 599 939 561 960 l 542 864 q 426 886 492 886 q 332 820 360 886 q 282 572 304 754 l 524 572 l 488 522 q 272 500 410 506 q 233 215 250 329 q 118 -86 203 15 q -99 -187 33 -187 q -160 -179 -126 -187 l -107 -103 q -22 -114 -65 -114 q 138 100 104 -114 l 197 501 l 157 501 q 7 499 101 501 l 36 554 q 208 571 86 567 q 307 860 231 761 q 503 960 383 960 z "},"ȷ":{"ha":276,"x_min":-282,"x_max":211,"o":"m -214 -300 q -282 -293 -254 -300 l -225 -204 q -147 -212 -186 -212 q -85 -203 -108 -212 q -44 -182 -61 -194 q -14 -143 -28 -169 q 8 -97 0 -117 q 23 -36 15 -76 q 34 29 31 4 q 44 106 38 54 q 56 185 51 157 l 121 629 l 24 558 l 26 574 q 53 609 36 588 q 119 669 71 631 q 211 715 168 708 l 146 231 q 13 -164 111 -28 q -214 -300 -85 -300 z "},"ˆ":{"ha":569,"x_min":64,"x_max":425,"o":"m 264 1063 q 348 1013 296 1050 q 425 949 400 975 l 376 903 q 225 1008 288 989 q 78 906 161 976 l 64 918 q 165 1015 119 979 q 264 1063 210 1050 z "},"ˇ":{"ha":531,"x_min":75,"x_max":483,"o":"m 138 1050 q 294 936 225 958 q 469 1063 358 968 l 483 1050 q 256 882 350 904 q 167 936 219 897 q 75 1021 115 975 l 138 1050 z "},"˘":{"ha":569,"x_min":81,"x_max":415,"o":"m 229 1096 q 81 1139 144 1096 l 140 1200 q 280 1161 208 1161 q 406 1199 351 1161 l 415 1188 q 229 1096 354 1096 z "},"˙":{"ha":521,"x_min":153,"x_max":338,"o":"m 249 1161 q 338 1054 285 1133 l 244 971 q 221 997 238 978 q 153 1071 176 1050 l 249 1161 z "},"˚":{"ha":478,"x_min":146,"x_max":342,"o":"m 235 1167 q 315 1144 288 1167 q 342 1083 342 1122 q 311 1007 342 1044 q 239 969 281 969 q 172 992 197 969 q 146 1049 146 1014 q 172 1117 146 1085 q 235 1167 197 1150 m 263 1014 q 311 1061 311 1029 q 287 1111 311 1093 q 228 1129 263 1129 q 183 1065 192 1110 q 208 1031 183 1049 q 263 1014 233 1014 z "},"˛":{"ha":521,"x_min":107,"x_max":392,"o":"m 185 -206 q 231 -256 185 -256 q 378 -186 272 -256 l 392 -210 q 224 -311 321 -268 q 137 -285 167 -311 q 107 -207 107 -260 q 152 -103 107 -154 q 315 33 197 -51 l 339 14 q 185 -206 185 -117 z "},"˜":{"ha":575,"x_min":46,"x_max":525,"o":"m 360 850 q 276 876 329 850 q 192 901 222 901 q 119 883 161 901 q 53 843 76 864 l 46 864 q 206 969 114 933 q 290 945 236 969 q 374 921 343 921 q 449 935 406 921 q 514 965 493 950 l 525 950 q 360 850 447 871 z "},"˝":{"ha":738,"x_min":79,"x_max":667,"o":"m 368 1053 q 379 1053 374 1053 l 358 999 q 270 960 346 999 q 94 807 194 922 l 79 825 q 178 956 142 913 q 368 1053 261 1053 m 656 1053 q 667 1053 661 1053 l 646 999 q 558 960 633 999 q 382 807 482 922 l 367 825 q 467 956 429 913 q 656 1053 549 1053 z "},"̇":{"ha":444,"x_min":165,"x_max":350,"o":"m 261 1161 q 350 1054 297 1133 l 257 971 q 233 997 250 978 q 165 1071 189 1050 l 261 1161 z "},"Δ":{"ha":893,"x_min":28,"x_max":803,"o":"m 599 1008 l 686 1047 q 726 602 688 910 q 803 61 764 294 l 674 -29 l 28 -28 q 599 1008 560 953 m 610 936 q 374 510 607 936 q 119 38 142 83 q 216 39 156 38 q 403 42 276 40 q 699 50 699 47 l 610 936 z "},"Ω":{"ha":1131,"x_min":124,"x_max":1117,"o":"m 728 1054 q 1008 933 900 1054 q 1117 629 1117 811 q 1017 308 1117 447 q 767 76 918 169 l 1026 76 l 974 0 l 706 0 l 699 26 q 976 507 925 308 q 1000 696 1000 599 q 930 932 1000 851 q 721 1013 860 1013 q 430 857 539 1013 q 321 495 321 701 q 457 26 321 289 l 442 0 l 124 0 l 186 76 l 403 76 q 247 238 303 151 q 190 472 190 325 q 264 757 190 619 q 461 974 338 894 q 728 1054 585 1054 z "},"π":{"ha":788,"x_min":90,"x_max":850,"o":"m 651 617 l 407 626 q 336 247 376 428 l 322 181 q 264 37 303 92 q 190 -18 225 -18 q 90 53 125 -18 l 107 68 q 128 67 114 67 q 219 113 181 67 q 278 235 258 160 q 310 383 299 310 q 331 531 322 456 q 346 629 340 606 q 215 606 258 629 q 124 499 171 583 l 113 513 q 216 657 140 600 q 361 714 292 714 q 565 703 460 714 q 706 692 671 692 q 839 740 786 692 l 850 728 q 781 640 815 664 q 697 615 746 615 q 645 422 669 571 q 621 188 621 272 q 631 83 621 104 q 768 214 707 133 l 783 190 q 690 84 742 129 q 540 -31 638 39 q 529 110 529 -1 q 558 376 529 221 q 651 617 588 531 z "},"–":{"ha":728,"x_min":49,"x_max":647,"o":"m 124 457 l 647 457 l 601 382 l 49 382 l 124 457 z "},"—":{"ha":997,"x_min":68,"x_max":961,"o":"m 143 461 l 961 461 l 886 386 l 68 386 l 143 461 z "},"‘":{"ha":308,"x_min":90,"x_max":267,"o":"m 267 938 q 183 844 194 847 q 126 906 154 868 q 90 960 99 943 q 128 1051 93 982 q 226 1203 164 1119 l 247 1188 q 174 1053 174 1078 q 220 999 182 1039 q 267 938 258 960 z "},"’":{"ha":328,"x_min":111,"x_max":288,"o":"m 111 1110 q 194 1203 183 1200 q 251 1142 224 1179 q 288 1088 279 1104 q 249 997 285 1065 q 151 844 214 928 l 131 860 q 204 994 204 969 q 158 1048 196 1008 q 111 1110 119 1088 z "},"‚":{"ha":454,"x_min":139,"x_max":315,"o":"m 139 115 q 222 208 211 206 q 279 147 251 185 q 315 93 307 110 q 277 2 313 71 q 179 -150 242 -67 l 158 -135 q 232 0 232 -25 q 185 53 224 14 q 139 115 147 93 z "},"“":{"ha":604,"x_min":90,"x_max":574,"o":"m 574 938 q 490 844 501 847 q 433 906 461 868 q 397 960 406 943 q 435 1051 400 982 q 533 1203 471 1119 l 554 1188 q 481 1053 481 1078 q 527 999 489 1039 q 574 938 565 960 m 267 938 q 183 844 194 847 q 126 906 154 868 q 90 960 99 943 q 128 1051 93 982 q 226 1203 164 1119 l 247 1188 q 174 1053 174 1078 q 220 999 182 1039 q 267 938 258 960 z "},"”":{"ha":675,"x_min":93,"x_max":576,"o":"m 93 1110 q 176 1203 165 1200 q 233 1142 206 1179 q 269 1088 261 1104 q 231 997 267 1065 q 133 844 196 928 l 113 860 q 186 994 186 969 q 140 1048 178 1008 q 93 1110 101 1088 m 400 1110 q 483 1203 472 1200 q 540 1142 513 1179 q 576 1088 568 1104 q 538 997 574 1065 q 440 844 503 928 l 419 860 q 493 994 493 969 q 447 1048 485 1008 q 400 1110 408 1088 z "},"„":{"ha":740,"x_min":132,"x_max":615,"o":"m 132 115 q 215 208 204 206 q 272 147 244 185 q 308 93 300 110 q 270 2 306 71 q 172 -150 235 -67 l 151 -135 q 225 0 225 -25 q 178 53 217 14 q 132 115 140 93 m 439 115 q 522 208 511 206 q 579 147 551 185 q 615 93 607 110 q 577 2 613 71 q 479 -150 542 -67 l 458 -135 q 532 0 532 -25 q 485 53 524 14 q 439 115 447 93 z "},"†":{"ha":733,"x_min":126,"x_max":607,"o":"m 456 1049 q 413 688 436 849 l 607 688 l 571 632 q 403 614 496 618 q 276 -111 356 288 l 206 -143 q 317 614 274 225 l 126 615 l 182 685 l 324 685 q 349 960 339 826 l 456 1049 z "},"‡":{"ha":703,"x_min":132,"x_max":592,"o":"m 471 1049 q 428 688 451 849 l 592 688 l 561 635 q 418 614 493 614 q 383 389 407 528 l 568 389 l 536 333 q 372 315 458 315 q 297 -94 344 147 l 225 -142 q 299 315 269 96 q 204 316 257 315 q 132 317 151 317 l 188 386 l 308 386 q 336 614 319 464 q 238 615 299 614 q 156 615 178 615 l 211 685 l 343 685 q 371 979 356 807 l 471 1049 z "},"•":{"ha":725,"x_min":179,"x_max":556,"o":"m 385 615 q 424 615 385 615 q 509 566 463 615 q 556 442 556 517 q 490 279 556 338 q 348 221 424 221 q 226 269 272 221 q 179 392 179 318 q 242 553 179 490 q 385 615 307 615 z "},"…":{"ha":1011,"x_min":85,"x_max":893,"o":"m 85 90 l 185 186 q 278 74 228 153 l 181 -15 q 144 28 179 -14 q 85 90 108 69 m 394 90 l 494 186 q 588 74 538 153 l 490 -15 q 453 28 489 -14 q 394 90 418 69 m 700 90 l 800 186 q 893 74 843 153 l 796 -15 q 759 28 794 -14 q 700 90 724 69 z "},"‰":{"ha":1351,"x_min":54,"x_max":1258,"o":"m 1090 483 q 1218 428 1178 483 q 1258 278 1258 372 q 1173 99 1258 183 q 986 14 1088 14 q 910 40 944 14 q 858 114 875 65 q 765 41 819 68 q 655 14 711 14 q 558 63 599 14 q 517 183 517 113 q 544 318 517 254 q 629 433 571 382 q 761 483 688 483 q 913 383 875 483 q 1090 483 983 483 m 81 919 q 95 951 81 919 q 167 1034 108 983 q 306 1085 225 1085 q 426 1029 386 1085 q 467 879 467 974 q 381 700 467 785 q 194 615 296 615 q 95 665 136 615 q 54 785 54 714 q 81 919 54 856 m 888 1136 l 956 1067 q 584 559 847 888 q 113 8 321 231 l 86 38 q 307 321 107 65 q 637 758 507 576 q 888 1136 767 940 m 849 292 q 821 394 849 346 q 733 443 793 443 q 630 377 672 443 q 588 226 588 311 q 690 72 588 72 q 849 292 849 72 m 386 893 q 358 996 386 947 q 270 1044 331 1044 q 167 978 210 1044 q 125 828 125 913 q 228 674 125 674 q 386 893 386 674 m 1178 292 q 1150 394 1178 346 q 1062 443 1122 443 q 959 377 1001 443 q 917 226 917 311 q 1019 72 917 72 q 1178 292 1178 72 z "},"‹":{"ha":682,"x_min":131,"x_max":482,"o":"m 424 671 l 482 603 q 368 492 444 558 q 228 386 292 425 q 364 291 290 350 q 476 192 438 232 l 424 111 q 131 386 319 257 q 424 671 322 522 z "},"›":{"ha":604,"x_min":149,"x_max":500,"o":"m 203 667 l 210 665 q 500 386 313 517 q 326 246 403 321 q 207 111 250 171 l 153 192 q 267 290 193 232 q 404 385 340 349 l 403 385 q 263 492 340 424 q 149 603 186 560 l 203 667 z "},"⁄":{"ha":1165,"x_min":171,"x_max":1040,"o":"m 972 1136 l 1040 1067 q 669 559 932 888 q 197 8 406 231 l 171 38 q 392 321 192 65 q 722 758 592 576 q 972 1136 851 940 z "},"€":{"ha":876,"x_min":60,"x_max":897,"o":"m 708 1043 q 897 1015 804 1043 l 817 911 q 660 983 740 965 q 440 860 543 982 q 299 572 338 739 l 578 572 l 542 522 q 286 500 453 503 q 281 432 281 465 q 282 388 281 399 l 563 388 l 526 338 q 292 315 438 318 q 362 161 311 226 q 493 76 413 96 q 738 206 588 93 l 750 194 q 618 69 700 132 q 468 -11 536 7 q 306 39 372 -11 q 186 314 186 131 l 186 315 q 60 317 138 317 l 107 388 l 189 388 q 207 500 196 453 q 132 501 179 500 q 75 501 85 501 l 122 572 l 225 572 q 413 908 285 772 q 708 1043 540 1043 z "},"™":{"ha":926,"x_min":42,"x_max":883,"o":"m 568 951 l 519 956 q 447 900 463 956 q 440 828 440 872 l 389 792 q 432 942 389 882 q 571 1001 475 1001 q 632 996 596 1001 q 639 896 632 979 q 646 784 646 813 q 644 742 646 756 l 644 728 l 650 726 q 742 904 689 815 q 828 1003 794 993 l 824 935 q 808 683 808 710 q 810 633 808 657 q 868 682 844 654 l 883 664 q 764 575 842 621 q 760 701 760 615 q 771 888 760 788 l 765 890 q 699 758 750 872 q 604 571 649 644 l 599 572 q 593 772 593 628 l 593 890 l 588 892 l 513 696 q 361 581 468 581 q 340 588 347 581 l 372 633 q 407 629 385 629 q 447 646 429 629 q 488 724 464 663 q 568 951 513 785 m 236 957 l 157 961 q 88 896 88 961 l 88 860 l 47 825 l 42 828 l 42 892 q 92 969 42 938 q 236 1000 142 1000 l 415 1000 l 417 994 l 381 957 l 285 957 q 253 797 263 885 q 238 673 243 710 q 214 618 232 636 l 217 610 q 281 629 257 610 l 293 615 q 174 575 247 575 l 154 575 q 140 576 150 575 q 126 576 129 576 l 129 594 q 170 620 156 603 q 188 651 185 638 q 196 690 192 664 l 226 913 q 239 950 229 940 l 236 957 z "},"℮":{"ha":1381,"x_min":118,"x_max":1267,"o":"m 1267 474 l 336 474 q 328 467 328 474 l 328 186 q 342 154 328 164 q 693 0 492 0 q 897 46 801 0 q 1063 171 993 92 l 1147 171 q 948 24 1068 78 q 692 -29 828 -29 q 285 122 453 -29 q 118 487 118 272 q 285 853 118 701 q 691 1004 453 1004 q 1098 853 929 1004 q 1267 488 1267 701 l 1267 474 m 1056 510 l 1056 794 q 1042 828 1056 811 q 692 975 892 975 q 343 822 493 975 q 328 788 328 808 l 328 510 q 336 501 328 501 l 1049 501 q 1056 510 1056 501 z "},"∂":{"ha":757,"x_min":69,"x_max":642,"o":"m 378 1025 q 569 931 497 1025 q 642 669 642 836 q 594 341 642 501 q 451 78 546 181 q 233 -25 356 -25 q 116 26 163 -25 q 69 150 69 76 q 158 411 69 297 q 376 525 246 525 q 564 449 488 525 q 579 603 579 540 q 509 851 579 760 q 308 942 439 942 q 192 925 254 942 l 172 965 q 378 1025 283 1025 m 338 464 q 199 397 247 464 q 151 244 151 329 q 283 51 151 54 q 438 133 374 51 q 538 340 501 214 q 448 429 504 394 q 338 464 392 464 z "},"∏":{"ha":915,"x_min":107,"x_max":825,"o":"m 400 983 l 333 983 l 186 -143 l 107 -143 l 235 988 l 307 1054 l 825 1054 l 663 -143 l 589 -143 l 714 947 q 583 974 683 964 q 400 983 483 983 z "},"∑":{"ha":879,"x_min":0,"x_max":831,"o":"m 582 -146 l 207 -132 q 11 -143 97 -132 l 0 -135 q 235 185 106 -6 q 413 469 364 375 q 308 736 388 547 q 205 970 228 925 q 182 1022 182 1015 q 251 1049 182 1049 l 594 1042 q 751 1047 694 1042 q 814 1051 808 1051 q 831 1038 831 1051 l 831 1035 l 778 800 l 750 800 q 753 844 753 822 q 738 894 753 867 q 696 937 724 921 q 638 964 668 953 q 564 981 607 975 q 420 988 496 988 q 328 969 344 988 q 406 770 339 936 q 521 499 472 604 q 365 262 517 492 q 182 -24 214 32 q 392 -39 279 -25 q 564 -53 506 -53 q 665 -17 622 -53 q 760 125 708 18 l 782 111 q 703 -72 763 3 q 582 -146 643 -146 z "},"−":{"ha":749,"x_min":40,"x_max":706,"o":"m 476 397 l 71 404 q 40 404 53 404 l 115 479 q 206 481 150 481 l 569 475 q 706 479 658 475 l 631 404 q 476 397 585 397 z "},"√":{"ha":781,"x_min":58,"x_max":651,"o":"m 58 282 l 60 290 q 61 299 60 294 l 92 319 q 165 367 124 339 q 223 404 207 394 q 244 397 239 414 q 322 163 260 356 q 403 -78 385 -31 l 406 -78 q 604 1111 578 907 l 651 1131 q 539 470 617 908 q 422 -164 461 32 l 379 -225 q 272 61 333 -112 q 189 311 211 235 q 161 324 183 332 l 58 282 z "},"∞":{"ha":1113,"x_min":8,"x_max":1086,"o":"m 311 672 q 408 641 360 672 q 486 576 457 610 q 565 478 522 535 q 706 608 663 579 q 911 672 796 672 q 1041 617 996 672 q 1086 466 1086 561 q 1006 283 1086 371 q 841 194 925 194 q 685 247 757 194 q 535 399 613 300 q 461 322 490 350 q 386 260 432 293 q 190 194 299 194 q 67 240 126 194 q 8 389 8 285 q 98 583 8 493 q 311 672 188 672 m 510 425 q 264 600 374 600 q 107 542 154 600 q 60 411 60 483 q 113 319 60 367 q 249 271 167 271 q 510 425 386 271 m 876 269 q 911 269 876 269 q 990 314 946 269 q 1035 427 1035 358 q 986 548 1035 496 q 860 600 938 600 q 718 561 782 600 q 586 453 654 522 q 747 306 688 343 q 876 269 806 269 z "},"∫":{"ha":664,"x_min":-21,"x_max":714,"o":"m 601 1282 q 664 1256 633 1282 q 714 1190 694 1229 l 647 1122 q 538 1211 581 1211 q 504 1184 517 1211 q 468 1017 492 1157 q 338 214 386 529 q 181 -183 288 -83 q 92 -222 139 -222 q -21 -139 38 -222 l 76 -81 q 149 -154 117 -154 q 228 14 199 -154 q 319 556 257 182 q 399 1040 381 931 q 478 1216 418 1150 q 601 1282 539 1282 z "},"≈":{"ha":1042,"x_min":111,"x_max":939,"o":"m 381 647 q 555 605 424 647 q 782 563 686 563 q 921 601 840 563 l 939 585 q 747 492 864 492 q 542 532 661 492 q 367 572 422 572 q 124 496 228 572 l 111 521 q 381 647 271 647 m 381 350 q 555 308 424 350 q 782 265 686 265 q 921 304 840 265 l 939 288 q 747 194 864 194 q 542 235 661 194 q 367 275 422 275 q 124 199 228 275 l 111 224 q 381 350 271 350 z "},"≠":{"ha":878,"x_min":40,"x_max":835,"o":"m 461 504 l 835 504 l 760 429 l 461 429 l 461 243 l 783 243 l 708 168 l 461 168 l 461 49 l 386 -26 l 386 168 l 40 168 l 115 243 l 386 243 l 386 429 l 92 429 l 167 504 l 386 504 l 386 642 l 461 717 l 461 504 z "},"≤":{"ha":974,"x_min":126,"x_max":869,"o":"m 201 82 l 869 82 l 794 7 l 126 7 l 201 82 m 750 901 l 804 846 q 292 596 549 749 l 292 571 q 821 290 554 411 l 772 249 q 151 582 375 422 l 151 596 q 750 901 447 790 z "},"≥":{"ha":954,"x_min":76,"x_max":829,"o":"m 76 7 l 151 82 l 819 82 l 744 7 l 76 7 m 176 832 l 231 888 q 829 582 533 776 l 829 568 q 208 235 606 408 l 160 276 q 689 557 426 397 l 689 582 q 176 832 432 735 z "},"◊":{"ha":728,"x_min":75,"x_max":610,"o":"m 346 869 q 359 878 346 869 q 375 888 372 888 q 381 879 378 888 q 474 635 401 788 q 610 385 547 482 q 376 -56 469 169 q 335 -97 353 -85 q 315 -108 318 -108 q 304 -100 306 -108 q 207 140 281 -11 q 75 381 133 292 q 314 839 217 607 q 346 869 319 851 m 350 4 q 443 193 386 61 q 529 376 500 325 q 336 769 451 493 q 244 583 303 713 q 156 396 186 453 l 156 389 q 350 4 250 251 z "},"ﬀ":{"ha":683,"x_min":-243,"x_max":886,"o":"m 489 1182 l 557 1182 l 501 1108 l 413 1108 q 308 1049 346 1108 q 270 969 279 1003 q 256 917 261 936 q 247 867 251 899 q 240 820 242 835 q 236 774 239 806 q 232 732 233 743 q 227 695 231 721 q 222 658 224 669 q 479 688 371 676 q 493 792 482 722 q 608 1075 517 968 q 818 1182 699 1182 l 886 1182 l 831 1108 l 761 1108 q 642 1050 681 1108 q 587 926 597 985 q 572 839 576 868 q 557 696 564 778 l 750 715 l 724 650 q 642 642 697 647 q 547 631 588 636 q 500 284 533 510 q 459 6 467 58 q 447 -76 451 -47 q 440 -119 443 -104 q 431 -156 438 -133 q 383 -237 417 -200 l 390 -244 q 499 -178 401 -239 l 510 -201 l 219 -372 l 204 -343 q 319 -267 279 -311 q 358 -171 349 -236 q 366 -109 361 -151 q 379 -13 371 -67 q 467 625 388 40 q 215 596 311 606 q 150 104 192 401 q 35 -197 121 -96 q -182 -299 -50 -299 q -243 -290 -211 -299 l -190 -214 q -106 -225 -149 -225 q 54 -11 26 -225 q 132 586 101 361 q 3 572 15 574 q 35 635 33 635 q 142 647 72 639 q 164 792 154 742 q 279 1074 188 967 q 489 1182 371 1182 z "},"ﬁ":{"ha":626,"x_min":-160,"x_max":728,"o":"m 454 1182 l 522 1182 l 467 1108 l 397 1108 q 319 1088 353 1108 q 266 1038 285 1067 q 233 964 247 1010 q 215 885 219 918 q 206 802 211 851 q 196 731 200 753 q 190 692 192 710 l 529 715 q 500 506 521 661 q 418 76 458 189 l 421 72 q 713 397 540 157 l 728 388 q 526 128 628 242 q 356 -14 425 15 q 353 65 353 19 q 364 192 353 111 q 403 422 375 272 q 449 672 432 572 q 337 649 426 661 q 183 631 247 636 q 136 284 169 510 q 95 6 103 58 q 83 -76 88 -47 q 76 -119 79 -104 q 67 -156 74 -133 q 19 -237 53 -200 l 26 -244 q 135 -178 38 -239 l 146 -201 l -144 -372 l -160 -343 q -44 -267 -85 -311 q -6 -171 -15 -236 q 2 -109 -3 -151 q 15 -13 7 -67 q 103 625 24 40 l -21 615 q 10 675 8 675 q 115 688 58 682 q 129 792 124 757 q 244 1074 153 967 q 454 1182 336 1182 z "},"ﬂ":{"ha":646,"x_min":-160,"x_max":860,"o":"m 706 1165 q 790 1182 736 1179 l 792 1182 q 860 1175 832 1182 l 803 1100 q 726 1108 764 1108 q 667 1097 689 1108 q 629 1067 644 1085 q 600 1020 614 1050 q 578 966 586 990 q 562 903 569 942 q 550 844 554 865 q 532 726 539 775 q 507 522 525 676 q 421 75 468 190 l 425 72 q 742 432 558 168 l 756 424 q 542 142 651 268 q 360 -14 433 17 q 357 39 357 19 q 442 669 357 146 q 183 631 374 646 q 136 284 169 510 q 95 6 103 58 q 83 -76 88 -47 q 76 -119 79 -104 q 67 -156 74 -133 q 19 -237 53 -200 l 26 -244 q 135 -178 38 -239 l 146 -201 l -144 -372 l -160 -343 q -44 -267 -85 -311 q -6 -171 -15 -236 q 2 -109 -3 -151 q 15 -13 7 -67 q 103 625 24 40 l -21 615 q 10 675 8 675 q 115 688 58 682 q 240 1069 147 956 q 538 1182 332 1182 q 706 1165 643 1182 m 190 692 q 447 710 229 694 q 469 843 458 769 q 528 998 479 917 q 646 1129 578 1079 q 418 1117 490 1128 q 261 1035 303 1099 q 219 903 236 997 q 206 803 215 872 q 190 692 197 733 z "},"ﬃ":{"ha":996,"x_min":-243,"x_max":1092,"o":"m 489 1182 l 557 1182 l 501 1108 l 413 1108 q 306 1046 340 1108 q 256 918 267 976 q 236 781 239 821 q 230 713 233 740 q 224 663 226 686 q 379 678 290 671 q 479 688 468 686 q 493 792 488 757 q 608 1074 517 967 q 818 1182 700 1182 q 933 1161 896 1182 l 876 1086 q 772 1108 826 1108 q 683 1088 717 1108 q 630 1038 649 1067 q 597 964 611 1010 q 579 885 583 918 q 569 802 575 851 q 560 731 564 753 q 554 692 556 710 l 893 715 q 864 506 885 661 q 782 76 822 189 l 785 72 q 1076 397 904 157 l 1092 388 q 890 128 992 242 q 719 -14 789 15 q 717 65 717 19 q 728 192 717 111 q 767 422 739 272 q 813 672 796 572 q 701 649 790 661 q 547 631 611 636 q 497 268 531 489 q 456 1 463 47 q 447 -76 450 -44 q 440 -119 443 -107 q 431 -156 438 -132 q 383 -237 418 -199 l 390 -244 q 499 -178 401 -239 l 510 -201 l 219 -372 l 204 -343 q 319 -267 279 -311 q 358 -171 349 -236 q 366 -109 361 -151 q 379 -13 371 -67 q 467 625 388 40 q 358 617 447 624 q 217 606 269 611 q 150 104 203 482 q 35 -197 121 -96 q -182 -299 -50 -299 q -243 -290 -211 -299 l -190 -214 q -106 -225 -149 -225 q 54 -11 26 -225 q 136 596 65 75 q 3 578 121 594 q 33 638 32 638 q 144 653 122 650 l 164 792 q 279 1074 188 967 q 489 1182 371 1182 z "},"ﬄ":{"ha":1013,"x_min":-243,"x_max":1238,"o":"m 276 983 q 265 951 276 983 q 248 876 254 919 q 238 795 242 832 q 224 664 235 758 q 493 688 408 678 q 617 1069 525 956 q 915 1182 710 1182 q 1083 1165 1021 1182 q 1156 1181 1114 1179 l 1169 1182 q 1238 1175 1210 1182 l 1181 1100 q 1104 1108 1142 1108 q 1044 1097 1067 1108 q 1007 1067 1022 1085 q 978 1020 992 1050 q 956 966 964 990 q 940 903 947 942 q 928 844 932 865 q 910 726 917 775 q 885 522 903 676 q 799 75 846 190 l 803 72 q 1119 432 936 168 l 1133 424 q 920 142 1029 268 q 738 -14 811 17 q 735 39 735 19 q 819 669 735 146 q 561 631 751 646 q 510 268 544 489 q 470 1 476 47 q 460 -76 464 -44 q 454 -119 457 -107 q 444 -156 451 -132 q 397 -237 432 -199 l 404 -244 q 513 -178 415 -239 l 524 -201 l 233 -372 l 218 -343 q 333 -267 293 -311 q 372 -171 363 -236 q 380 -109 375 -151 q 393 -13 385 -67 q 481 625 401 40 q 217 601 414 618 q 150 104 201 468 q 35 -197 121 -96 q -182 -299 -50 -299 q -243 -290 -211 -299 l -190 -214 q -106 -225 -149 -225 q 54 -11 26 -225 q 136 594 68 100 q 1 585 63 588 q 31 650 29 650 q 144 658 85 654 l 164 792 q 304 1103 192 994 q 403 1163 346 1143 q 557 1182 460 1182 l 501 1108 q 383 1101 417 1108 q 324 1071 350 1094 q 276 983 299 1047 m 568 692 q 825 710 607 694 q 847 843 836 769 q 906 998 857 917 q 1024 1129 956 1079 q 796 1117 868 1128 q 639 1035 681 1099 q 597 903 614 997 q 584 803 593 872 q 568 692 575 733 z "}}}
